<svg width="532" height="256" viewBox="0 0 532 256" fill="none" xmlns="http://www.w3.org/2000/svg">
<path fill-rule="evenodd" clip-rule="evenodd" d="M499.44 0.213745C507.737 0.213745 515.691 3.52628 521.528 9.41681C527.913 15.3075 531.544 23.5995 531.544 32.2808C531.544 39.7287 528.877 46.8848 524.096 52.4835L521.528 55.1501L329.888 246.79C324.044 252.676 316.091 255.993 307.8 255.993C300.883 255.993 294.212 253.691 288.8 249.514L285.711 246.79L166.242 127.321C158.07 119.43 154.732 107.779 157.482 96.758C160.232 85.7367 168.654 77.018 179.57 73.894C189.127 71.1544 199.324 73.0555 207.195 78.8628L210.419 81.5868L307.799 179.275L477.346 9.40814C483.189 3.51748 491.143 0.205078 499.434 0.205078L499.44 0.213745ZM51.6399 78.8697L54.8587 81.5938L171.749 200.203C184.15 212.781 184.322 232.927 172.14 245.719C171.926 245.948 171.708 246.172 171.484 246.391C160.338 257.401 142.9 258.146 130.9 248.698L128.02 246.125L10.6808 127.328C2.51416 119.437 -0.82438 107.787 1.92562 96.7653C4.67562 85.744 13.0923 77.0253 24.0136 73.9013C33.5658 71.1617 43.763 73.0628 51.639 78.8702L51.6399 78.8697ZM343.88 0.213745C352.172 0.213745 360.125 3.52628 365.968 9.41681C372.353 15.3075 375.984 23.5995 375.984 32.2808C375.984 40.9683 372.353 49.2595 365.968 55.1501L335.583 85.5355C323.01 98.1084 302.776 98.5771 289.629 86.598L288.64 85.6501C276.765 73.8063 276.739 54.5714 288.588 42.6967L321.79 9.41539C327.629 3.52472 335.582 0.212321 343.878 0.212321L343.88 0.213745Z" fill="black"/>
</svg>
