<svg width="650" height="512" viewBox="0 0 650 512" fill="none" xmlns="http://www.w3.org/2000/svg">
<path d="M328.735 414.254C415.667 414.254 486.139 343.782 486.139 256.85C486.139 169.918 415.667 99.446 328.735 99.446C241.803 99.446 171.331 169.918 171.331 256.85C171.331 343.782 241.803 414.254 328.735 414.254Z" fill="#E7E8EA"/>
<path d="M534.388 226.177V210.349C534.388 207.331 533.189 204.437 531.055 202.303C528.92 200.168 526.026 198.97 523.008 198.97H482.841C479.823 198.97 476.928 197.771 474.794 195.636C472.66 193.502 471.461 190.608 471.461 187.59V171.763C471.461 168.744 472.66 165.85 474.794 163.716C476.928 161.582 479.823 160.383 482.841 160.383H484.109C485.604 160.383 487.083 160.088 488.464 159.516C489.845 158.945 491.099 158.106 492.156 157.05C493.213 155.993 494.051 154.738 494.623 153.358C495.195 151.977 495.489 150.497 495.489 149.003V133.176C495.489 131.681 495.195 130.201 494.623 128.821C494.051 127.44 493.213 126.186 492.156 125.129C491.099 124.072 489.845 123.234 488.464 122.662C487.083 122.09 485.604 121.796 484.109 121.796H192.275C189.257 121.796 186.363 122.995 184.229 125.129C182.095 127.263 180.896 130.158 180.896 133.176V149.003C180.896 150.497 181.19 151.977 181.762 153.358C182.334 154.738 183.172 155.993 184.229 157.05C185.285 158.106 186.54 158.945 187.921 159.516C189.301 160.088 190.781 160.383 192.275 160.383V160.383C193.77 160.383 195.25 160.677 196.63 161.249C198.011 161.821 199.265 162.659 200.322 163.716C201.379 164.772 202.217 166.027 202.789 167.408C203.361 168.788 203.655 170.268 203.655 171.763V187.59C203.655 189.084 203.361 190.564 202.789 191.945C202.217 193.325 201.379 194.58 200.322 195.636C199.265 196.693 198.011 197.531 196.63 198.103C195.25 198.675 193.77 198.97 192.275 198.97H148.269C145.251 198.97 142.356 200.168 140.222 202.303C138.088 204.437 136.889 207.331 136.889 210.349V226.177C136.889 229.195 138.088 232.089 140.222 234.223C142.356 236.357 145.251 237.556 148.269 237.556H165.536C167.031 237.556 168.51 237.851 169.891 238.423C171.272 238.994 172.526 239.833 173.583 240.889C174.64 241.946 175.478 243.201 176.05 244.581C176.622 245.962 176.916 247.442 176.916 248.936V264.763C176.916 266.258 176.622 267.738 176.05 269.118C175.478 270.499 174.64 271.753 173.583 272.81C172.526 273.867 171.272 274.705 169.891 275.277C168.51 275.849 167.031 276.143 165.536 276.143H165.495C164 276.143 162.52 276.438 161.14 277.009C159.759 277.581 158.505 278.42 157.448 279.476C156.391 280.533 155.553 281.788 154.981 283.168C154.409 284.549 154.115 286.029 154.115 287.523V303.35C154.115 306.368 155.314 309.263 157.448 311.397C159.582 313.531 162.476 314.73 165.495 314.73H167.993C171.011 314.73 173.905 315.929 176.04 318.063C178.174 320.197 179.373 323.092 179.373 326.11V341.937C179.373 343.431 179.078 344.911 178.506 346.292C177.934 347.673 177.096 348.927 176.04 349.984C174.983 351.04 173.728 351.879 172.348 352.451C170.967 353.022 169.487 353.317 167.993 353.317H126.992C123.974 353.317 121.079 354.516 118.945 356.65C116.811 358.784 115.612 361.679 115.612 364.697V380.524C115.612 382.018 115.907 383.498 116.479 384.879C117.05 386.259 117.889 387.514 118.945 388.571C120.002 389.627 121.257 390.465 122.637 391.037C124.018 391.609 125.498 391.904 126.992 391.904H490.219C491.713 391.904 493.193 391.609 494.574 391.037C495.954 390.465 497.209 389.627 498.265 388.571C499.322 387.514 500.16 386.259 500.732 384.879C501.304 383.498 501.599 382.018 501.599 380.524V364.697C501.599 361.679 500.4 358.784 498.265 356.65C496.131 354.516 493.237 353.317 490.219 353.317H480.352C478.858 353.317 477.378 353.023 475.997 352.451C474.616 351.879 473.362 351.041 472.305 349.984C471.248 348.927 470.41 347.673 469.838 346.292C469.266 344.911 468.972 343.431 468.972 341.937V326.11C468.972 324.615 469.266 323.136 469.838 321.755C470.41 320.374 471.248 319.12 472.305 318.063C473.362 317.006 474.616 316.168 475.997 315.596C477.378 315.024 478.858 314.73 480.352 314.73H503.617C505.111 314.73 506.591 314.436 507.972 313.864C509.352 313.292 510.607 312.454 511.664 311.397C512.72 310.34 513.559 309.086 514.13 307.705C514.702 306.324 514.997 304.845 514.997 303.35V287.523C514.997 286.029 514.702 284.549 514.13 283.168C513.559 281.788 512.72 280.533 511.664 279.476C510.607 278.42 509.352 277.581 507.972 277.009C506.591 276.438 505.111 276.143 503.617 276.143H496.559C493.541 276.143 490.647 274.944 488.513 272.81C486.379 270.676 485.18 267.782 485.18 264.763V248.936C485.18 245.918 486.379 243.024 488.513 240.889C490.647 238.755 493.541 237.556 496.559 237.556H523.008C526.026 237.556 528.92 236.357 531.055 234.223C533.189 232.089 534.388 229.195 534.388 226.177Z" fill="#E7E8EA"/>
<path d="M393.152 117.511H423.473" stroke="#646E82" stroke-width="3" stroke-miterlimit="10" stroke-linecap="round"/>
<path d="M393.152 126.25H423.473" stroke="#646E82" stroke-width="3" stroke-miterlimit="10" stroke-linecap="round"/>
<path d="M393.152 134.989H423.473" stroke="#646E82" stroke-width="3" stroke-miterlimit="10" stroke-linecap="round"/>
<path d="M414.157 360.745H444.478" stroke="#646E82" stroke-width="3" stroke-miterlimit="10" stroke-linecap="round"/>
<path d="M414.157 369.484H444.478" stroke="#646E82" stroke-width="3" stroke-miterlimit="10" stroke-linecap="round"/>
<path d="M414.157 378.223H444.478" stroke="#646E82" stroke-width="3" stroke-miterlimit="10" stroke-linecap="round"/>
<path d="M162.528 216.199H192.849" stroke="#646E82" stroke-width="3" stroke-miterlimit="10" stroke-linecap="round"/>
<path d="M162.528 224.938H192.849" stroke="#646E82" stroke-width="3" stroke-miterlimit="10" stroke-linecap="round"/>
<path d="M162.528 233.677H192.849" stroke="#646E82" stroke-width="3" stroke-miterlimit="10" stroke-linecap="round"/>
<path d="M495.296 331.86L377.816 343.679L260.335 331.86C259.842 331.81 259.385 331.579 259.052 331.211C258.72 330.844 258.536 330.365 258.536 329.87L255.767 321.773L258.536 189.119L377.816 201.119L497.096 189.119L499.727 322.853L497.096 329.87C497.096 330.365 496.911 330.844 496.579 331.211C496.246 331.579 495.789 331.81 495.296 331.86V331.86Z" fill="#646E82"/>
<path d="M499.727 322.853L377.816 334.618L255.767 321.773L258.536 182.269C258.536 181.99 258.594 181.713 258.708 181.458C258.821 181.202 258.987 180.974 259.194 180.786C259.401 180.598 259.646 180.457 259.911 180.369C260.177 180.282 260.458 180.251 260.736 180.279L377.816 192.058L494.895 180.279C495.173 180.251 495.454 180.282 495.72 180.369C495.985 180.457 496.23 180.599 496.437 180.786C496.644 180.974 496.81 181.202 496.924 181.458C497.037 181.713 497.096 181.99 497.096 182.269L499.727 322.853Z" fill="#8896B1"/>
<path d="M376.855 325.258L494.087 313.853L489.198 180.852L385.606 191.274L376.855 325.258Z" fill="#646E82"/>
<path d="M376.855 176.458L479.335 164.938L484.082 314.826L376.855 325.258V176.458Z" fill="#6C768A"/>
<path d="M382.615 175.498L274.855 173.578L280.615 319.498L376.855 325.258L382.615 175.498Z" fill="#646E82"/>
<path d="M377.815 168.538L480.295 157.018L487.495 307.258L377.815 317.338V168.538Z" fill="#9EACC9"/>
<path d="M377.815 312.364V317.338L487.495 307.258L487.258 302.306L377.815 312.364Z" fill="#7483A0"/>
<path d="M377.815 168.538L270.055 166.618L275.815 312.538L377.815 317.338V168.538Z" fill="#9EACC9"/>
<path d="M275.815 312.538L377.815 317.338V312.214L275.815 307.413V312.538Z" fill="#7483A0"/>
<path d="M282.6 263.853C282.909 275.583 287.025 286.894 294.328 296.077C301.631 305.261 311.723 311.82 323.082 314.762L367.975 316.875V174.778C367.975 174.778 334.055 177.186 298.883 167.131L280.063 166.796L282.6 263.853ZM435.057 312.077C446.138 304.171 455.054 293.606 460.985 281.354C466.917 269.101 469.673 255.555 469.001 241.959L464.889 158.75L440.035 161.544C417.316 173.046 389.533 180.256 389.533 180.256V316.261L435.057 312.077Z" fill="#8795B0"/>
<path d="M377.815 168.538C377.815 168.538 435.175 153.658 452.455 132.538L457.284 230.241C458.22 249.181 452.499 267.851 441.113 283.015C429.728 298.179 413.395 308.881 394.946 313.266L377.815 317.338V168.538Z" fill="#9EACC9"/>
<path d="M393.064 168.538L377.815 317.338C377.815 317.338 397.232 315.871 398.755 315.414C415.805 299.773 425.513 273.494 423.199 250.148L413.906 156.369C407.735 158.901 401.687 161.093 396.355 162.891C394.4 166.291 393.064 168.538 393.064 168.538Z" fill="#8795B0"/>
<path d="M377.815 168.538C377.815 168.538 394.375 140.698 396.295 132.538L407.95 250.148C409.224 263.003 407.113 275.968 401.827 287.755C396.54 299.541 388.263 309.74 377.815 317.338V317.338L377.815 168.538ZM377.815 168.538C377.815 168.538 330.535 171.898 289.735 154.138L292.441 257.613C292.762 269.921 297.275 281.749 305.233 291.144C313.19 300.538 324.116 306.935 336.202 309.276L377.815 317.338V168.538Z" fill="#9EACC9"/>
<path d="M377.815 168.538C378.643 180.938 379.076 193.338 379.37 205.738C379.554 211.938 379.595 218.138 379.704 224.338L379.814 242.938L379.709 261.538C379.598 267.738 379.562 273.938 379.376 280.138C379.083 292.538 378.648 304.938 377.815 317.338C376.983 304.938 376.548 292.538 376.255 280.138C376.069 273.938 376.033 267.738 375.922 261.538L375.816 242.938L375.927 224.338C376.035 218.138 376.076 211.938 376.261 205.738C376.555 193.338 376.988 180.938 377.815 168.538ZM307.967 189.493C313.01 189.92 317.956 190.527 322.9 191.107L337.673 192.877C342.591 193.455 347.505 193.939 352.438 194.421C357.376 194.891 362.312 195.182 367.367 195.613C362.443 196.803 357.404 197.457 352.339 197.565C347.287 197.675 342.234 197.436 337.215 196.849C332.207 196.262 327.24 195.374 322.339 194.191C317.423 193.037 312.615 191.465 307.967 189.493ZM307.967 210.848C313.01 211.275 317.956 211.882 322.9 212.463L337.673 214.232C342.591 214.811 347.505 215.294 352.438 215.777C357.376 216.247 362.312 216.538 367.367 216.968C362.443 218.158 357.404 218.813 352.339 218.92C347.287 219.031 342.234 218.791 337.215 218.204C332.207 217.617 327.24 216.73 322.339 215.547C317.423 214.392 312.615 212.821 307.967 210.848V210.848ZM307.967 232.204C313.01 232.63 317.956 233.238 322.9 233.818L337.673 235.588C342.591 236.166 347.505 236.65 352.438 237.132C357.376 237.602 362.312 237.893 367.367 238.324C362.443 239.514 357.404 240.168 352.339 240.276C347.287 240.386 342.234 240.147 337.215 239.56C332.207 238.973 327.24 238.085 322.339 236.902C317.423 235.748 312.615 234.176 307.967 232.204V232.204ZM307.967 253.559C313.01 253.986 317.956 254.593 322.9 255.174L337.673 256.943C342.591 257.522 347.505 258.005 352.438 258.488C357.376 258.958 362.312 259.249 367.367 259.679C362.443 260.869 357.404 261.524 352.339 261.631C347.287 261.742 342.234 261.502 337.215 260.915C332.207 260.328 327.24 259.44 322.339 258.258C317.423 257.103 312.615 255.532 307.967 253.559V253.559ZM307.967 274.915C313.01 275.341 317.956 275.948 322.9 276.529L337.673 278.298C342.591 278.877 347.505 279.361 352.438 279.843C357.376 280.313 362.312 280.604 367.367 281.035C362.443 282.225 357.404 282.879 352.339 282.987C347.287 283.097 342.234 282.858 337.215 282.271C332.207 281.683 327.24 280.796 322.339 279.613C317.423 278.459 312.615 276.887 307.967 274.915V274.915Z" fill="#B6C5E2"/>
<path d="M449.178 192.351L425.882 196.279C425.624 196.329 425.359 196.328 425.101 196.276C424.844 196.223 424.599 196.121 424.382 195.974C424.164 195.827 423.977 195.639 423.832 195.419C423.688 195.2 423.587 194.955 423.537 194.697L422.764 177.869C422.714 177.611 422.716 177.346 422.768 177.089C422.821 176.831 422.923 176.587 423.07 176.369C423.217 176.151 423.405 175.965 423.624 175.82C423.843 175.675 424.089 175.574 424.347 175.524L447.942 170.675C448.2 170.625 448.465 170.626 448.723 170.679C448.98 170.731 449.225 170.834 449.442 170.981C449.66 171.128 449.847 171.316 449.992 171.535C450.137 171.754 450.237 172 450.287 172.257L450.761 190.006C450.862 190.527 450.752 191.066 450.455 191.506C450.158 191.946 449.699 192.249 449.178 192.351ZM435.953 233.811L412.656 237.74C412.398 237.79 412.133 237.789 411.876 237.736C411.618 237.684 411.374 237.581 411.156 237.434C410.939 237.288 410.752 237.099 410.607 236.88C410.462 236.661 410.362 236.416 410.312 236.158L409.539 219.33C409.438 218.809 409.548 218.269 409.845 217.83C410.141 217.39 410.601 217.086 411.121 216.985L434.717 212.136C434.975 212.086 435.24 212.087 435.497 212.139C435.755 212.192 435.999 212.294 436.217 212.441C436.435 212.588 436.621 212.777 436.766 212.996C436.911 213.215 437.011 213.46 437.061 213.718L437.535 231.467C437.585 231.725 437.584 231.99 437.532 232.247C437.479 232.504 437.377 232.749 437.23 232.967C437.083 233.184 436.894 233.371 436.675 233.516C436.456 233.661 436.211 233.761 435.953 233.811Z" fill="#646E82"/>
<path d="M411.121 216.985C410.601 217.086 410.141 217.39 409.845 217.83C409.548 218.269 409.438 218.809 409.539 219.329L410.312 236.158C410.413 236.679 410.717 237.138 411.156 237.435C411.596 237.731 412.135 237.841 412.656 237.74L421.816 236.195L419.737 215.214L411.121 216.985Z" fill="#717E99"/>
<path d="M445.071 275.272L421.774 279.201C421.254 279.302 420.714 279.192 420.274 278.895C419.835 278.598 419.531 278.139 419.43 277.619L418.657 260.79C418.607 260.532 418.608 260.267 418.661 260.01C418.713 259.753 418.816 259.508 418.963 259.29C419.11 259.073 419.298 258.886 419.517 258.741C419.736 258.596 419.982 258.496 420.24 258.446L443.835 253.596C444.093 253.546 444.358 253.548 444.616 253.6C444.873 253.653 445.117 253.755 445.335 253.902C445.553 254.049 445.739 254.237 445.884 254.456C446.029 254.675 446.13 254.921 446.18 255.179L446.653 272.928C446.703 273.185 446.702 273.451 446.65 273.708C446.597 273.965 446.495 274.21 446.348 274.427C446.201 274.645 446.012 274.832 445.793 274.977C445.574 275.122 445.329 275.222 445.071 275.272V275.272Z" fill="#646E82"/>
<path d="M420.24 258.446C419.719 258.547 419.26 258.851 418.963 259.29C418.666 259.73 418.556 260.269 418.657 260.79L419.43 277.619C419.486 277.904 419.604 278.174 419.776 278.409C419.948 278.643 420.17 278.837 420.425 278.977C422.391 272.076 423.434 264.945 423.526 257.77L420.24 258.446Z" fill="#717E99"/>
<path d="M312.04 398.443C319.198 398.443 325 392.641 325 385.483C325 378.325 319.198 372.523 312.04 372.523C304.882 372.523 299.08 378.325 299.08 385.483C299.08 392.641 304.882 398.443 312.04 398.443Z" fill="#646E82"/>
<path d="M294.76 361.243C298.471 361.243 301.48 358.234 301.48 354.523C301.48 350.812 298.471 347.803 294.76 347.803C291.049 347.803 288.04 350.812 288.04 354.523C288.04 358.234 291.049 361.243 294.76 361.243Z" fill="#646E82"/>
<path d="M338.718 370.843C344.02 370.843 348.318 366.545 348.318 361.243C348.318 355.941 344.02 351.643 338.718 351.643C333.416 351.643 329.118 355.941 329.118 361.243C329.118 366.545 333.416 370.843 338.718 370.843Z" fill="#646E82"/>
<path d="M174.129 326.296C182.645 326.296 189.549 319.392 189.549 310.876C189.549 302.36 182.645 295.456 174.129 295.456C165.613 295.456 158.709 302.36 158.709 310.876C158.709 319.392 165.613 326.296 174.129 326.296Z" fill="#646E82"/>
<path d="M144.663 307.925C149.099 307.925 152.695 304.329 152.695 299.893C152.695 295.457 149.099 291.861 144.663 291.861C140.227 291.861 136.631 295.457 136.631 299.893C136.631 304.329 140.227 307.925 144.663 307.925Z" fill="#646E82"/>
<path d="M152.041 277.223C154.6 277.223 156.674 275.149 156.674 272.59C156.674 270.031 154.6 267.957 152.041 267.957C149.482 267.957 147.408 270.031 147.408 272.59C147.408 275.149 149.482 277.223 152.041 277.223Z" fill="#646E82"/>
<path d="M177.688 286.975C183.822 286.975 188.795 282.002 188.795 275.868C188.795 269.734 183.822 264.761 177.688 264.761C171.554 264.761 166.581 269.734 166.581 275.868C166.581 282.002 171.554 286.975 177.688 286.975Z" fill="#646E82"/>
<path d="M271.185 152.639C279.701 152.639 286.605 145.735 286.605 137.219C286.605 128.703 279.701 121.799 271.185 121.799C262.669 121.799 255.765 128.703 255.765 137.219C255.765 145.735 262.669 152.639 271.185 152.639Z" fill="#646E82"/>
<path d="M271.811 113.812C276.247 113.812 279.843 110.216 279.843 105.78C279.843 101.344 276.247 97.748 271.811 97.748C267.375 97.748 263.779 101.344 263.779 105.78C263.779 110.216 267.375 113.812 271.811 113.812Z" fill="#646E82"/>
<path d="M325.309 117.425C329.148 117.425 332.261 114.312 332.261 110.473C332.261 106.634 329.148 103.521 325.309 103.521C321.469 103.521 318.357 106.634 318.357 110.473C318.357 114.312 321.469 117.425 325.309 117.425Z" fill="#646E82"/>
<path d="M300.018 108.351C302.576 108.351 304.651 106.277 304.651 103.718C304.651 101.159 302.576 99.085 300.018 99.085C297.459 99.085 295.385 101.159 295.385 103.718C295.385 106.277 297.459 108.351 300.018 108.351Z" fill="#646E82"/>
<path d="M305.402 140.114C311.536 140.114 316.509 135.141 316.509 129.007C316.509 122.873 311.536 117.9 305.402 117.9C299.268 117.9 294.295 122.873 294.295 129.007C294.295 135.141 299.268 140.114 305.402 140.114Z" fill="#646E82"/>
<path d="M253.728 305.162L237.937 296.155L228.929 311.946L244.721 320.954L253.728 305.162Z" fill="#DBE8EC"/>
<path d="M314.011 301.093C323.93 293.613 331.409 283.359 335.501 271.629C339.594 259.899 340.116 247.218 337.002 235.191C333.887 223.164 327.277 212.33 318.006 204.06C308.734 195.79 297.219 190.454 284.916 188.728C272.612 187.002 260.074 188.963 248.885 194.364C237.696 199.764 228.36 208.36 222.056 219.066C215.753 229.773 212.766 242.107 213.473 254.511C214.18 266.915 218.549 278.83 226.027 288.751C230.993 295.339 237.208 300.885 244.318 305.071C251.427 309.257 259.292 312.001 267.462 313.148C275.633 314.294 283.949 313.819 291.936 311.751C299.923 309.682 307.424 306.061 314.011 301.093ZM235.806 281.387C229.782 273.4 226.262 263.806 225.691 253.818C225.12 243.83 227.523 233.897 232.598 225.275C237.672 216.653 245.189 209.729 254.198 205.38C263.208 201.03 273.305 199.45 283.212 200.84C293.119 202.229 302.392 206.525 309.858 213.184C317.324 219.843 322.647 228.567 325.155 238.252C327.662 247.937 327.242 258.148 323.946 267.594C320.65 277.04 314.627 285.296 306.638 291.319C295.927 299.392 282.449 302.881 269.166 301.018C255.883 299.156 243.884 292.095 235.806 281.387V281.387Z" fill="#8795B0"/>
<path opacity="0.76" d="M276.189 301.515C304.123 301.515 326.769 278.87 326.769 250.935C326.769 223 304.123 200.355 276.189 200.355C248.254 200.355 225.609 223 225.609 250.935C225.609 278.87 248.254 301.515 276.189 301.515Z" fill="white"/>
<path d="M312.301 253.155C311.82 260.991 308.803 268.457 303.706 274.427C298.608 280.397 291.708 284.548 284.045 286.252C276.382 287.957 268.373 287.122 261.225 283.876C254.078 280.629 248.181 275.145 244.423 268.253" stroke="#DDE0E5" stroke-width="10" stroke-miterlimit="10"/>
<path d="M249.495 323.625L224.2 309.198C223.241 308.651 222.019 308.985 221.472 309.944L184.475 374.81C183.928 375.769 184.262 376.991 185.221 377.538L210.516 391.965C211.475 392.513 212.697 392.178 213.244 391.219L250.241 326.353C250.789 325.394 250.454 324.172 249.495 323.625Z" fill="#9AA7C1"/>
<path d="M213.243 391.219L250.241 326.353C250.371 326.125 250.455 325.873 250.488 325.613C250.521 325.352 250.502 325.088 250.433 324.834C250.363 324.581 250.245 324.344 250.084 324.136C249.923 323.929 249.723 323.755 249.494 323.625L243.203 320.037C243.664 320.3 244.001 320.735 244.141 321.246C244.281 321.758 244.212 322.304 243.949 322.765L206.952 387.631C206.822 387.859 206.648 388.059 206.441 388.22C206.233 388.381 205.996 388.5 205.743 388.569C205.489 388.638 205.225 388.657 204.964 388.624C204.704 388.591 204.452 388.507 204.224 388.377L210.515 391.965C210.744 392.096 210.995 392.179 211.256 392.212C211.516 392.245 211.781 392.227 212.034 392.157C212.287 392.088 212.525 391.969 212.732 391.808C212.94 391.647 213.113 391.447 213.243 391.219V391.219Z" fill="#7584A3"/>
<path d="M190.558 378.28L227.555 313.414C227.685 313.186 227.859 312.985 228.066 312.824C228.274 312.663 228.511 312.545 228.764 312.476C229.018 312.406 229.282 312.387 229.543 312.42C229.803 312.453 230.055 312.537 230.283 312.667L237.271 316.653L224.2 309.198C223.739 308.935 223.193 308.866 222.681 309.006C222.169 309.146 221.734 309.483 221.471 309.944L184.474 374.81C184.211 375.271 184.142 375.817 184.282 376.329C184.422 376.84 184.76 377.275 185.22 377.538L191.304 381.008C191.076 380.878 190.876 380.704 190.715 380.496C190.554 380.289 190.435 380.052 190.366 379.798C190.296 379.545 190.278 379.28 190.311 379.02C190.344 378.759 190.427 378.508 190.558 378.28V378.28Z" fill="#8795B0"/>
<path d="M198.292 384.993L210.515 391.965H210.516L198.292 384.993Z" fill="#409CB5"/>
<path d="M185.093 371.319L215.933 388.909C216.394 389.172 216.731 389.607 216.871 390.119C217.011 390.63 216.942 391.177 216.68 391.637L213.736 396.799C212.005 399.834 209.139 402.057 205.768 402.979C202.398 403.901 198.799 403.447 195.764 401.716L184.338 395.198C182.835 394.341 181.516 393.196 180.455 391.829C179.395 390.462 178.614 388.9 178.158 387.231C177.701 385.562 177.578 383.82 177.794 382.103C178.011 380.387 178.564 378.73 179.421 377.227L182.365 372.066C182.628 371.605 183.063 371.267 183.575 371.127C184.086 370.987 184.632 371.056 185.093 371.319L185.093 371.319Z" fill="#D5D8DE"/>
<path d="M185.402 380.683L188.345 375.522C188.608 375.061 189.043 374.723 189.555 374.583C190.067 374.443 190.613 374.512 191.074 374.775L216.25 389.135C216.152 389.05 216.046 388.974 215.933 388.909L185.093 371.319C184.632 371.056 184.086 370.987 183.574 371.127C183.063 371.267 182.628 371.605 182.365 372.066L179.421 377.227C177.69 380.262 177.235 383.861 178.157 387.231C179.08 390.601 181.303 393.467 184.338 395.198L189.667 398.238C186.851 396.408 184.841 393.571 184.048 390.307C183.255 387.044 183.739 383.601 185.402 380.683V380.683Z" fill="#DDE0E6"/>
<path d="M213.735 396.799L216.679 391.637C216.942 391.176 217.011 390.63 216.871 390.119C216.731 389.607 216.394 389.172 215.933 388.909L209.615 385.305C210.074 385.569 210.41 386.004 210.548 386.514C210.687 387.025 210.618 387.57 210.356 388.03L207.412 393.191C205.681 396.226 202.815 398.45 199.445 399.372C196.074 400.294 192.476 399.839 189.441 398.108L184.327 395.192L184.338 395.198L195.764 401.715C197.267 402.573 198.924 403.125 200.64 403.342C202.357 403.559 204.099 403.436 205.768 402.979C207.437 402.522 208.999 401.742 210.366 400.681C211.733 399.621 212.878 398.301 213.735 396.799V396.799Z" fill="#C7C8CA"/>
</svg>
