<svg width="95" height="159" viewBox="0 0 95 159" fill="none" xmlns="http://www.w3.org/2000/svg">
<path d="M18.4328 103.215C19 99.5287 21.5522 96.9765 24.9552 94.7078C28.6418 92.4391 33.1791 92.1556 37.4328 91.5884C38.2836 91.5884 38.5672 91.872 38.8507 91.872C40.5522 93.857 44.806 92.4391 45.9403 90.1705C46.2239 89.6033 46.2239 89.0362 45.6567 88.469C45.0895 87.6182 43.3881 87.9018 42.5373 87.6182C41.1194 87.3347 39.9851 87.3347 38.8507 88.1854C38.2836 88.7526 37.7164 89.3197 37.7164 89.8869C35.4478 90.4541 33.1791 91.0212 30.9104 91.3048C34.0298 88.1854 35.4478 82.2302 31.7612 79.6779C31.4776 79.3944 30.6269 79.6779 30.6269 80.2451C30.3433 83.0809 27.2239 84.7824 26.6567 87.3347C26.3731 88.7526 25.806 91.3048 26.6567 92.7227C25.5224 93.2899 24.3881 93.857 22.9701 94.4242C21.8358 94.9914 20.9851 95.8421 20.4179 96.6929C19.5672 97.5436 19.2836 96.9765 19.2836 96.4093C19.5672 94.4242 19.5672 92.7227 19.8507 90.7376C20.1343 85.066 20.1343 79.1108 20.1343 73.4391C20.1343 72.5884 20.9851 68.6182 23.8209 64.9317C25.2388 62.9466 25.2388 61.2451 25.2388 58.6929C25.2388 57.8421 24.3881 56.9914 24.3881 58.1257C24.3881 61.2451 22.9701 63.5138 21.5522 66.066C21.2687 66.6332 20.4179 66.6332 20.4179 65.7824C20.4179 59.5436 20.1343 53.5884 20.7015 47.3496C20.9851 45.3645 23.5373 28.066 28.3582 32.0362C30.6269 34.0212 30.9104 39.1257 30.6269 41.6779C30.6269 44.2302 30.0597 46.7824 29.4925 49.0511C29.209 50.1854 28.9254 49.9018 28.6418 49.3347C28.0746 47.9168 26.9403 47.066 24.6716 47.3496C23.8209 47.3496 23.5373 48.2003 24.6716 48.2003C28.3582 48.2003 28.6418 53.5884 28.6418 56.9914C28.3582 63.2302 29.4925 69.469 29.209 75.7078C29.209 77.6929 30.9104 77.9765 30.9104 75.9914C30.9104 74.5735 30.9104 72.872 31.194 71.4541C34.0298 72.5884 36.5821 70.6033 38.2836 68.0511C39.7015 65.7824 40.8358 61.8123 38.8507 59.5436C38.2836 58.9765 37.7164 59.5436 37.7164 60.1108C37.4328 62.663 34.597 64.0809 32.6119 65.2153L31.7612 66.066V62.3794V57.275C33.1791 57.8421 34.597 57.5585 36.0149 56.9914C38.8507 55.2899 38.8507 51.8869 38.5672 49.0511C38.5672 48.4839 37.7164 47.9168 37.4328 48.4839C36.2985 49.6182 34.3134 50.469 32.6119 51.6033C32.6119 50.7526 32.8955 49.9018 32.8955 49.3347C33.7463 43.663 35.1642 35.4391 30.6269 30.9018C28.0746 28.066 24.9552 29.7675 22.9701 32.0362C23.2537 30.6182 23.2537 29.2003 22.6866 27.7824C22.1194 25.7974 20.1343 22.3944 18.1493 21.5436C17.5821 21.26 17.0149 21.5436 17.0149 22.1108C17.0149 23.5287 17.5821 25.2302 17.5821 26.6481C17.5821 28.3496 17.0149 29.7675 17.0149 31.469C16.7313 34.3048 18.4328 36.8571 19.8507 38.8421C18.4328 44.5138 18.4328 50.7526 18.1493 56.4242V63.5138C17.8657 62.9466 17.2985 62.663 17.0149 62.3794C16.4478 61.8123 15.597 61.5287 15.0298 60.9615C14.4627 60.3944 14.4627 59.8272 14.7463 59.26C17.2985 54.4391 15.8806 49.0511 14.7463 43.9466C14.7463 43.663 14.7463 42.8123 15.0298 42.5287C16.7313 39.4093 14.1791 36.2899 11.0597 35.4391C10.7761 35.4391 10.209 35.4391 10.209 36.0063C9.92537 37.7078 9.64179 39.1257 10.4925 40.8272C11.0597 41.9615 12.194 43.0959 13.3284 43.3794C14.4627 48.2003 16.1642 53.5884 13.8955 58.1257C13.3284 59.26 12.7612 58.6929 12.4776 58.4093C11.3433 57.275 10.4925 56.1406 10.209 54.4391C10.209 54.1556 10.4925 53.3048 10.4925 53.0212C11.3433 50.1854 8.22388 48.2003 6.2388 47.066C5.67164 46.4988 4.82089 47.3496 5.10448 48.2003C5.38806 49.0511 5.10448 49.9018 5.10448 50.469C5.10448 51.0362 5.10448 51.8869 5.38806 52.4541C5.95522 53.5884 7.08955 54.4391 8.50746 54.7227C9.07463 57.275 10.7761 59.5436 13.0448 61.2451C14.4627 62.3794 16.4478 63.2302 17.5821 64.9317C18.4328 66.3496 18.4328 68.6182 18.4328 69.469V80.8123C18.1493 86.2003 18.1493 91.5884 17.5821 96.9765C17.2985 98.3944 17.0149 98.3944 16.7313 97.5436C15.8806 95.275 14.4627 93.2899 12.7612 91.3048C14.7463 90.4541 15.8806 88.7526 15.8806 86.4839C15.597 83.6481 12.7612 82.2302 10.4925 81.3794C9.92537 81.0959 9.35821 81.3794 9.35821 81.9466C9.35821 83.9317 9.64179 85.9168 9.64179 87.9018V88.7526C8.50746 87.9018 7.37313 87.3347 5.95522 86.4839C6.2388 85.3496 5.95522 84.2153 5.38806 83.3645C4.25373 81.663 2.55224 82.2302 1.13433 81.0959C0.567164 80.8123 0 80.8123 0 81.663C0 84.4988 1.70149 89.6033 5.38806 87.9018H5.67164C8.50746 89.0362 10.7761 91.0212 12.7612 93.0063C10.209 92.7227 7.08955 93.5735 4.82089 93.0063C4.25373 93.0063 3.68657 93.2899 3.97015 93.857C5.38806 98.3944 11.6269 99.8123 15.0298 96.6929C16.1642 98.9615 17.0149 101.514 17.2985 104.35C17.2985 105.484 17.0149 106.618 17.0149 108.036C16.7313 110.588 16.7313 113.141 17.0149 115.693C17.0149 116.544 16.7313 116.544 16.4478 115.976C15.3134 114.559 13.8955 113.141 11.9104 112.573C13.0448 111.439 12.7612 109.738 12.194 108.32C11.3433 105.484 8.22388 104.35 6.2388 102.365C5.38806 101.797 4.53731 102.648 5.10448 103.499C6.80597 105.2 6.52239 109.738 7.9403 112.006C7.37313 112.006 6.80597 112.29 5.95522 112.29C5.38806 112.29 5.38806 112.006 5.10448 111.723C4.25373 111.156 3.1194 110.872 1.98507 111.156C0.850746 111.439 0.283582 112.857 0.850746 113.991C1.41791 115.976 5.10448 116.26 5.95522 114.275C5.95522 113.991 6.2388 113.708 6.52239 113.424C7.08955 113.424 7.65672 113.141 8.22388 113.141C7.65672 113.708 7.37313 114.275 6.80597 114.842C6.2388 115.976 5.67164 117.111 5.10448 117.962C4.53731 119.096 3.40298 119.379 2.55224 120.23C2.26866 120.514 2.55224 121.081 2.83582 121.365C5.10448 122.782 8.22388 121.932 10.209 120.514C12.4776 118.812 12.194 116.26 11.6269 113.991C13.3284 114.842 15.0298 116.26 16.1642 118.245C16.4478 118.812 17.2985 121.081 17.2985 121.648C17.8657 124.484 18.4328 127.32 19.2836 130.156C21.8358 137.812 24.1045 145.185 23.5373 153.409C23.5373 155.394 27.5075 155.111 27.791 153.409C28.0746 148.872 26.9403 144.051 25.5224 139.514C25.2388 138.947 25.2388 136.962 25.806 135.544C26.6567 133.559 28.3582 131.857 29.7761 130.439C30.3433 135.827 38.2836 139.797 42.5373 135.827C42.8209 135.544 42.8209 134.693 42.2537 134.693C38.8507 134.126 36.2985 129.305 32.8955 128.454C33.1791 128.17 33.4627 127.887 34.0298 127.887C36.0149 127.036 38.2836 126.469 40.5522 126.469C41.1194 128.17 42.8209 129.305 44.806 129.305C46.5075 129.305 48.2089 127.603 47.6418 125.902C46.791 123.066 41.403 121.932 40.5522 125.618C38.8507 125.618 37.1492 125.902 35.4478 126.185C35.7313 125.335 36.0149 124.484 36.0149 123.633C36.0149 121.648 35.4478 119.096 33.4627 117.962C32.8955 117.678 32.6119 117.962 32.3284 118.529C31.194 121.365 26.9403 125.618 30.0597 128.454C29.4925 129.021 28.9254 129.305 28.3582 129.872C27.2239 131.006 26.0895 132.424 25.2388 133.842C24.3881 135.26 23.8209 134.976 23.8209 134.409V133.842C22.403 129.021 20.7015 124.2 20.1343 119.379C20.1343 118.529 20.1343 117.111 20.7015 115.976C21.5522 114.842 22.9701 113.991 23.8209 113.141C25.5224 112.006 27.2239 111.156 28.9254 110.305C31.194 115.976 40.8358 118.529 44.5224 112.857C44.806 112.29 44.5224 111.723 43.9552 111.723C41.1194 111.439 39.4179 109.17 36.8657 108.036C36.5821 107.753 36.2985 107.753 35.7313 107.753C37.7164 106.902 39.7015 105.767 41.403 103.782C42.5373 104.066 43.6716 104.066 44.806 103.499C45.6567 102.932 46.5075 102.081 46.791 100.947C47.3582 99.8123 47.6418 96.1257 45.0895 96.6929C43.3881 96.9765 39.1343 100.663 40.2686 102.648C38.2836 104.633 35.7313 106.051 33.1791 106.902C33.7463 106.051 34.0298 105.2 34.0298 104.35C34.3134 101.514 32.0448 99.5287 30.9104 97.5436C30.6269 96.9765 29.4925 97.26 29.4925 97.8272C29.4925 101.23 26.3731 105.484 28.6418 108.603C27.2239 109.17 26.0895 109.738 24.6716 110.588C23.5373 111.156 22.403 112.29 20.9851 113.141C19.8507 113.991 19.8507 113.141 19.8507 112.857C18.1493 110.021 18.4328 106.618 18.4328 103.215ZM40.5522 89.0362C41.403 88.7526 42.5373 89.3197 43.3881 89.3197C44.5224 89.3197 45.0895 89.3197 44.2388 90.1705C43.3881 91.0212 40.2686 92.4391 39.9851 90.4541C39.9851 90.1705 39.7015 89.6033 40.2686 89.3197C40.2686 89.0362 40.5522 89.0362 40.5522 89.0362ZM28.6418 86.2003C29.4925 84.4988 30.9104 83.3645 31.7612 81.663C34.3134 84.4988 30.9104 90.7376 27.791 91.872C26.6567 90.4541 28.0746 87.3347 28.6418 86.2003ZM37.7164 61.8123C38 63.5138 37.1492 65.4988 36.5821 66.6332C35.7313 68.9018 32.8955 70.8869 30.6269 69.469C30.6269 69.1854 30.6269 68.3347 31.7612 66.9168C33.1791 65.2153 36.2985 64.0809 37.7164 61.8123ZM33.1791 52.1705C34.0298 51.6033 35.1642 51.0362 36.0149 50.469C36.2985 52.1705 36.0149 53.5884 34.8806 55.0063C33.7463 56.4242 32.0448 56.4242 30.9104 55.8571C30.9104 55.0063 30.9104 53.5884 33.1791 52.1705ZM10.209 36.8571C11.9104 37.7078 13.3284 39.4093 12.4776 41.3944C12.194 41.6779 11.9104 41.6779 11.9104 41.6779C10.209 40.8272 10.209 38.5585 10.209 36.8571ZM5.38806 50.1854V49.0511C6.52239 49.9018 7.65672 51.0362 7.37313 52.4541C7.37313 53.0212 6.80597 52.7377 6.80597 52.7377C5.95522 52.4541 5.38806 51.0362 5.38806 50.1854ZM10.4925 89.8869C9.92537 88.7526 9.92537 87.6182 9.92537 86.2003C9.92537 85.066 9.64179 83.9317 9.64179 82.7973C10.4925 83.3645 11.6269 83.9317 12.194 84.4988C13.8955 86.7675 12.4776 89.3197 10.4925 89.8869ZM0.283582 82.7973C0.850746 83.0809 1.13433 83.0809 1.70149 83.3645C2.83582 83.6481 3.68657 85.3496 3.1194 86.4839C1.41791 87.3347 0.567164 84.7824 0.283582 82.7973ZM4.25373 94.4242C7.08955 94.4242 11.0597 93.5735 12.7612 95.275C10.4925 97.8272 5.95522 96.9765 4.25373 94.4242ZM7.65672 106.902C8.79104 107.753 10.7761 110.872 8.79104 112.006C6.80597 111.723 6.2388 108.036 5.67164 105.484C6.2388 105.767 6.80597 106.335 7.65672 106.902ZM0.567164 113.708C0.283582 113.424 0.850746 112.857 1.13433 112.857C1.70149 112.857 2.26866 112.857 2.83582 113.141C3.1194 113.424 3.1194 113.708 3.1194 113.708C2.55224 114.559 1.13433 114.559 0.567164 113.708ZM8.50746 119.663C7.37313 120.797 5.10448 121.648 3.1194 121.081C3.68657 120.797 4.25373 120.514 4.53731 119.947C5.10448 119.096 5.67164 118.245 5.95522 117.394C6.52239 116.26 7.37313 114.559 8.79104 114.275C9.35821 115.976 9.92537 117.962 8.50746 119.663ZM38.8507 135.544C35.1642 137.529 29.7761 133.842 29.7761 129.588C32.0448 129.021 34.3134 131.857 35.7313 132.991C36.5821 134.126 37.7164 134.976 38.8507 135.544ZM44.5224 125.618C45.0895 126.469 44.2388 127.32 43.3881 127.603C42.2537 127.887 40.8358 127.036 40.5522 125.902V125.618C40.8358 123.633 43.3881 124.484 44.5224 125.618ZM32.0448 119.663C32.8955 120.514 33.1791 122.215 33.1791 123.35C33.1791 125.335 32.0448 126.469 30.6269 127.32C30.3433 127.32 30.3433 127.603 30.0597 127.603C30.0597 127.603 30.0597 127.32 29.7761 127.32C27.791 125.335 30.6269 121.932 32.0448 119.663ZM43.3881 98.6779C43.6716 98.3944 43.6716 98.3944 43.9552 98.6779C44.2388 99.2451 43.9552 100.096 43.6716 100.663C43.1045 102.365 41.6866 102.932 39.9851 102.365C39.1343 101.797 42.8209 98.9615 43.3881 98.6779ZM30.6269 109.17C33.7463 108.32 36.2985 110.305 38.5672 112.29C39.1343 112.857 39.9851 113.141 40.5522 113.141C37.1492 116.26 30.0597 113.708 28.6418 109.738C28.9254 109.738 29.4925 109.454 30.6269 109.17ZM28.9254 100.096C29.4925 100.947 30.3433 101.797 30.6269 102.932C31.4776 105.2 30.0597 107.469 28.0746 108.603C26.3731 106.335 28.0746 102.932 28.9254 100.096ZM17.5821 29.2003C17.8657 28.066 17.8657 27.2153 17.8657 26.0809C17.8657 25.2302 17.8657 24.0959 17.5821 23.2451C18.4328 24.0959 19 25.2302 19.5672 26.0809C20.9851 28.6332 20.7015 31.469 19.5672 34.0212C19.5672 34.3048 18.7164 35.7227 18.4328 34.872C17.5821 33.1705 17.2985 31.469 17.5821 29.2003Z" fill="#646E82"/>
<path d="M94.4328 105.484C91.3134 107.469 86.7761 108.036 83.9403 110.305C83.3731 105.767 81.6716 101.23 81.9552 96.4092V95.8421C83.6567 96.4092 85.9254 95.8421 87.3433 94.7077C90.1791 92.4391 90.7463 88.1854 90.1791 85.0659C90.1791 84.4988 89.0448 84.4988 88.7612 84.7824C87.0597 87.6182 83.3731 89.0361 81.3881 91.3048C80.8209 89.6033 80.2537 87.9018 79.403 86.2003C79.1194 85.6331 78.2687 84.2152 78.5522 82.2301C78.5522 81.3794 79.1194 80.2451 79.403 79.6779C79.9701 78.26 80.8209 77.1257 81.9552 76.2749C81.9552 77.4092 81.9552 78.8271 82.806 79.6779C83.9403 80.8122 85.3582 81.3794 86.4925 82.2301C86.7761 82.5137 87.6269 82.2301 87.6269 81.663C88.194 78.5436 87.3433 76.5585 85.3582 74.5734C86.209 74.5734 87.0597 74.5734 87.9104 74.857C87.6269 75.7077 87.6269 76.8421 88.194 77.6928C89.0448 79.1107 91.3134 78.8271 92.4478 77.9764C93.2985 77.1257 93.5821 75.7077 93.2985 74.5734C92.7313 73.1555 91.597 72.8719 90.4627 72.8719C89.6119 72.8719 89.0448 73.1555 88.7612 73.4391C87.9104 73.1555 87.0597 72.8719 86.4925 72.8719C88.4776 70.6033 88.194 67.4839 86.209 64.648C85.9254 64.0809 85.0746 64.0809 84.791 64.9316C83.9403 67.7674 80.5373 70.8868 82.2388 74.2898C81.1045 75.1406 79.9701 75.9913 79.1194 77.1257C78.2687 77.9764 77.7015 79.3943 77.4179 80.8122C77.1343 81.9465 76.5672 81.9465 76.2836 81.3794C76 80.8122 74.2985 79.3943 73.7313 77.6928C72.8806 75.4242 72.8806 72.8719 73.1642 70.3197C75.7164 71.454 78.5522 70.3197 80.2537 68.051C82.5224 65.2152 82.806 61.2451 81.1045 58.1257C80.8209 57.5585 80.2537 57.5585 79.6866 58.1257C78.5522 59.5436 78.2687 60.9615 76.5672 62.0958L74.0149 63.7973L73.7313 64.0809V62.663C73.7313 57.8421 73.7313 52.1704 71.4627 47.6331C71.1791 47.066 70.3284 44.5137 70.8955 42.2451C71.7463 39.1257 74.8657 37.7078 77.4179 39.1257C76.8507 41.1107 77.9851 43.0958 79.6866 44.2301C80.8209 45.0809 83.0895 45.648 83.6567 43.9466C84.2239 42.2451 83.3731 39.6928 81.9552 38.5585C81.1045 37.7078 79.6866 37.4242 78.5522 37.9913C74.2985 35.4391 70.6119 38.2749 69.194 42.2451C68.6269 43.9466 67.7761 43.3794 67.209 42.8122C66.0746 41.9615 64.3731 41.6779 62.6716 41.3943C60.6866 41.1107 58.9851 41.6779 57.8507 42.5286C57 43.0958 57 42.2451 57 41.9615V33.1704C64.0896 35.1555 67.209 25.7973 64.9403 20.1257C64.6567 19.5585 63.806 19.2749 63.5224 19.8421C62.1045 22.6779 60.1194 24.663 57.8507 26.9316C57.5672 27.2152 57.2836 27.7824 57 28.066V18.4242C57 17.857 57 17.0063 58.7015 16.7227C63.806 15.8719 66.9254 9.06597 64.0896 4.24508C63.806 3.67791 62.9552 3.67791 62.6716 4.24508C60.9701 7.64806 56.7164 9.34955 55.0149 12.469C54.1642 13.8869 54.1642 16.1555 54.1642 16.7227C54.1642 23.2451 54.4478 30.051 54.4478 36.5734C54.1642 36.0063 53.8806 35.7227 53.3134 35.1555C51.6119 33.1704 48.7761 34.0212 48.209 36.2898C47.9254 37.1406 48.7761 37.4242 49.0597 36.5734C49.6269 34.3048 52.1791 36.0063 53.0298 36.857C53.597 37.7078 53.8806 38.8421 54.1642 39.6928C54.4478 41.1107 54.4478 42.5286 54.4478 43.663V47.9167V56.4242C54.4478 58.4092 56.4328 58.4092 56.4328 56.4242V48.4839C56.4328 47.9167 56.7164 46.4988 57.2836 45.9316C59.5522 43.663 64.0896 43.9466 66.3582 46.2152C68.9104 48.7675 69.4776 53.8719 69.7612 57.5585C68.0597 55.0063 65.5075 53.8719 64.6567 50.7525C64.3731 49.9018 63.5224 50.1854 63.2388 50.7525C62.1045 53.8719 61.5373 56.9913 62.9552 59.8271C64.0896 62.3794 67.4925 62.9466 69.7612 62.663C69.4776 66.6331 68.9104 70.8868 69.194 74.857C69.4776 76.8421 68.3433 76.5585 67.4925 76.2749C64.0896 74.857 59.8358 73.7227 56.7164 74.0063C54.7313 74.0063 53.597 73.7227 53.0298 73.1555C52.4627 72.5883 52.1791 71.7376 51.6119 71.1704C50.4776 68.9018 50.7612 67.4839 52.7463 66.066C53.597 65.4988 53.0298 64.648 52.1791 65.2152C49.6269 66.6331 48.7761 68.3346 49.9104 71.1704C50.194 72.3048 50.7612 73.1555 51.6119 74.0063C51.8955 74.2898 52.1791 75.1406 51.8955 75.4242C51.3284 75.9913 50.7612 75.7077 50.4776 75.4242C49.3433 74.857 48.209 74.5734 46.791 74.857C44.2388 75.1406 41.6866 77.4092 39.1343 76.2749C38.5672 75.9913 38 76.5585 38 77.1257C38.5672 79.9615 40.8358 81.663 43.6716 82.2301C46.5075 82.5137 48.209 81.3794 49.9104 79.6779V81.0958C50.194 84.2152 52.7463 86.4839 55.2985 88.1854C57.2836 89.6033 57.2836 90.7376 57.2836 91.8719C55.2985 89.6033 50.194 91.5883 47.6418 91.3048C47.0746 91.3048 46.791 91.8719 46.791 92.1555C48.209 96.9764 52.7463 96.9764 56.4328 94.9913C55.5821 96.4092 54.1642 97.26 52.4627 97.26C51.6119 97.26 51.6119 98.6779 52.4627 98.6779H53.0298L52.1791 101.23V104.066C52.7463 106.051 54.4478 107.469 53.8806 109.738C53.8806 110.588 54.7313 111.155 55.2985 110.305C57.2836 106.618 60.6866 100.096 55.8657 97.26C57.5672 95.8421 58.4179 93.5734 58.4179 91.5883C58.4179 91.3048 58.4179 90.7376 59.2687 91.0212C60.403 91.5883 61.5373 92.4391 62.3881 93.2898C64.0896 94.7077 63.5224 97.26 62.6716 98.9615C61.5373 101.514 60.1194 103.782 60.403 106.902C60.403 108.887 62.3881 108.887 62.3881 106.902C62.3881 102.364 68.6269 97.5436 66.0746 93.0062C64.0896 89.3197 59.2687 87.6182 55.8657 85.3495C53.597 83.9316 51.0448 80.5286 53.597 77.9764C54.4478 77.1257 55.8657 76.8421 57.2836 76.8421C58.1343 76.8421 57.8507 77.4092 57.8507 77.9764C57.8507 78.26 57.5672 78.26 57.5672 78.5436C56.7164 81.663 60.1194 83.9316 62.9552 83.0809C63.806 82.7973 63.806 81.9465 62.6716 82.2301C60.6866 82.7973 58.4179 80.8122 58.9851 78.5436C58.9851 78.26 59.2687 77.9764 59.2687 77.9764C59.5522 77.6928 60.1194 77.4092 60.9701 77.6928C61.5373 77.6928 61.8209 77.9764 62.1045 77.9764C68.3433 79.3943 72.0298 82.7973 75.4328 87.9018C76.5672 89.8868 77.1343 91.8719 77.1343 93.857C76.5672 93.0062 76.2836 92.4391 75.4328 91.5883C74.2985 90.454 72.8806 89.8868 71.7463 89.0361C70.8955 88.4689 70.0448 87.051 68.9104 87.051C68.6269 87.051 68.3433 87.3346 68.0597 87.6182C66.9254 93.0062 70.8955 102.364 77.4179 101.23C77.7015 102.648 78.2687 104.35 78.5522 105.767C80.2537 113.141 77.7015 119.096 73.4478 125.335C72.3134 127.036 71.1791 128.738 70.3284 130.439C69.4776 131.573 69.194 131.006 69.194 130.155C69.194 127.603 69.194 125.335 68.3433 123.066C75.7164 122.499 75.1493 111.155 70.8955 106.902C70.3284 106.335 69.7612 106.902 69.7612 107.469C69.7612 111.155 68.0597 113.991 66.6418 117.394C66.3582 117.961 66.0746 118.529 66.0746 119.096C64.6567 117.961 62.9552 117.394 60.403 118.245C59.8358 117.111 58.7015 116.544 57.2836 116.544C55.8657 116.827 54.7313 117.961 55.0149 119.663C55.2985 121.081 56.7164 121.648 58.1343 121.648C59.2687 121.648 60.1194 120.797 60.403 119.663C62.6716 119.096 64.0896 119.379 65.2239 120.514C66.6418 121.932 66.9254 123.917 67.209 124.484C67.4925 125.335 67.4925 126.185 67.4925 127.32C66.6418 125.902 65.5075 124.484 64.0896 123.35C61.5373 121.648 57.8507 122.215 55.0149 122.215C54.1642 122.215 54.1642 123.066 54.7313 123.633C56.7164 125.051 57.8507 127.036 60.1194 128.17C62.1045 129.305 64.6567 128.17 66.6418 129.588C67.7761 130.439 67.7761 131.857 67.7761 132.708C67.7761 133.842 67.4925 135.26 67.209 136.111C67.209 136.678 66.6418 139.23 66.3582 140.081C66.3582 140.648 66.0746 141.215 66.0746 141.782C65.791 144.618 65.791 147.738 65.791 150.573C65.791 152.842 65.791 155.394 66.9254 157.379C67.7761 159.081 70.3284 157.663 69.4776 155.961C68.0597 153.409 68.6269 150.29 68.9104 147.454C68.9104 142.917 69.194 138.379 71.1791 134.409C74.5821 127.887 79.6866 123.066 81.6716 115.976C81.6716 115.693 81.9552 115.409 81.9552 115.126C84.2239 116.26 87.3433 115.409 89.6119 114.275C92.7313 112.573 93.5821 108.887 93.8657 105.767C95.5672 105.484 95 105.2 94.4328 105.484ZM91.597 77.4092C91.0298 77.9764 89.8955 77.9764 89.6119 77.1257C89.3284 76.5585 89.6119 75.9913 89.8955 75.4242C89.8955 75.1406 90.1791 74.857 90.4627 74.857C91.597 74.5734 92.4478 76.2749 91.597 77.4092ZM86.4925 80.5286C85.9254 80.2451 85.3582 79.9615 84.791 79.3943C83.9403 78.5436 83.6567 77.4092 83.6567 76.2749C83.6567 75.9913 83.6567 75.1406 84.791 75.9913C85.9254 77.4092 86.4925 78.8271 86.4925 80.5286ZM85.3582 67.2003C86.4925 69.4689 86.4925 72.0212 84.2239 73.4391C83.0895 74.0063 83.0895 73.1555 83.0895 72.8719C83.0895 71.1704 84.5075 68.9018 85.3582 67.2003ZM80.2537 39.9764C80.8209 39.9764 81.3881 40.5436 81.6716 40.8272C82.2388 41.6779 82.806 43.3794 82.5224 44.2301C82.2388 44.7973 80.8209 43.663 80.5373 43.663C79.6866 43.0958 79.1194 41.6779 79.1194 40.5436C79.1194 39.9764 79.9701 39.9764 80.2537 39.9764ZM60.6866 27.2152C62.1045 26.0809 63.2388 24.663 64.0896 22.9615C64.9403 27.7824 62.6716 34.5884 57 32.3197V32.0361C57.5672 30.051 58.9851 28.6331 60.6866 27.2152ZM63.5224 6.79731C64.9403 11.3346 61.2537 17.2898 56.1493 15.5884C56.1493 11.9018 60.9701 9.63313 63.5224 6.79731ZM77.4179 64.0809C79.1194 63.2301 79.403 62.0958 80.2537 60.6779C81.1045 62.9466 80.5373 65.2152 79.403 67.2003C78.2687 69.4689 75.4328 70.6033 73.1642 69.1854C73.4478 68.6182 74.0149 65.7824 77.4179 64.0809ZM64.9403 59.8271C63.806 58.1257 64.0896 55.857 64.6567 53.8719C65.2239 55.0063 66.3582 56.1406 67.4925 57.2749C68.9104 58.6928 70.0448 60.3943 70.6119 62.0958C68.3433 62.0958 66.3582 61.8122 64.9403 59.8271ZM41.403 78.8271C42.5373 79.1107 43.6716 78.8271 44.806 78.5436C47.3582 77.6928 49.6269 76.2749 51.8955 78.26C50.4776 79.3943 49.3433 80.8122 47.6418 81.3794C45.0896 82.2301 42.5373 80.8122 41.403 78.8271ZM50.194 93.2898C52.7463 93.0062 56.7164 91.8719 57.8507 93.857C55.2985 95.5585 51.6119 96.1256 50.194 93.2898ZM57 108.036C56.7164 107.469 56.4328 106.618 56.1493 106.051C55.2985 104.066 54.4478 100.663 56.7164 98.9615C60.1194 100.663 58.4179 104.917 57 108.036ZM60.1194 120.797C59.5522 120.797 58.9851 120.514 58.7015 119.947C58.1343 118.812 60.403 117.961 61.2537 119.096C61.2537 119.663 61.2537 120.23 60.9701 120.514C60.6866 120.797 60.6866 120.797 60.1194 120.797ZM72.0298 114.842C72.597 113.424 73.1642 111.723 73.1642 110.305C75.4328 114.558 75.4328 122.215 70.0448 122.499C70.0448 122.215 69.4776 120.514 70.6119 117.678C70.8955 116.544 71.4627 115.693 72.0298 114.842ZM58.9851 124.484C61.2537 124.484 63.5224 124.2 65.5075 125.335C66.9254 125.902 67.7761 127.32 68.3433 128.738C67.209 128.454 66.0746 128.17 64.9403 128.17C62.3881 128.17 60.6866 126.185 58.9851 124.484ZM88.7612 87.051C88.7612 89.0361 88.4776 90.7376 87.3433 92.4391C86.4925 94.1406 83.3731 95.5585 81.6716 94.1406C81.6716 93.857 81.6716 92.7227 83.6567 90.7376C85.6418 89.3197 87.3433 88.4689 88.7612 87.051ZM79.1194 100.663C74.0149 101.797 71.1791 94.1406 71.1791 90.1704C71.4627 90.454 71.7463 90.7376 72.0298 90.7376C72.8806 91.3048 74.0149 91.8719 75.1493 92.7227C76.5672 93.5734 77.4179 94.7077 77.9851 96.1256C78.5522 96.9764 79.1194 100.096 79.1194 100.663ZM91.8806 112.29C90.1791 114.275 86.209 115.693 83.9403 113.991C83.9403 113.424 84.2239 111.723 86.7761 110.021C88.7612 108.603 91.8806 108.32 94.1492 107.185C93.8657 109.17 93.2985 110.872 91.8806 112.29Z" fill="#646E82"/>
<path d="M25.8092 21.5436C26.9435 20.1257 28.0779 18.7078 28.9286 17.2899C29.4958 16.4391 29.7794 17.0063 29.7794 17.5735C29.7794 18.7078 29.7794 19.8421 29.4958 20.9764C29.2122 22.9615 30.6301 23.5287 30.9137 21.8272C31.4809 19.5585 31.4809 17.857 31.4809 15.872C31.4809 15.3048 31.4809 14.1705 32.048 15.0212L32.8988 15.872C34.0331 17.2899 35.1674 18.9914 36.5853 20.4093C36.8689 20.6929 37.4361 20.6929 37.7197 20.1257C39.4212 17.5735 39.7047 14.1705 37.7197 11.9018C36.3017 10.4839 34.6003 9.63316 32.8988 10.2003C34.6003 7.64808 37.4361 5.37943 39.9883 8.49883C40.8391 9.34958 41.1226 11.6182 40.8391 12.1854V15.3048C41.1226 18.9914 41.4062 22.9615 41.6898 26.6481C40.5555 24.9466 39.1376 24.0958 37.4361 22.9615C36.5853 22.3944 36.3017 23.2451 36.8689 23.5287C39.4212 24.9466 41.1226 27.7824 41.6898 30.6182V37.4242L40.8391 35.7227C39.4212 33.4541 36.0182 33.7376 35.1674 30.9018C34.8838 30.0511 33.7495 30.3346 33.7495 31.1854C33.4659 36.0063 33.7495 46.4988 41.1226 44.7973H41.4062C40.8391 52.454 40.8391 59.8272 41.1226 67.4839C41.1226 69.469 43.1077 69.1854 43.1077 67.4839V59.8272C51.3316 63.7973 55.8689 46.2152 49.0629 45.9317C48.7794 45.9317 48.4958 46.2152 48.2122 46.4988C47.645 49.9018 45.3764 51.8869 43.3913 54.4391C43.9585 45.3645 45.3764 36.2899 44.8092 26.9317C44.8092 25.7973 44.5256 24.663 44.5256 23.2451C47.0779 24.0958 49.3465 21.8272 50.7644 19.5585C52.4659 16.7227 52.1823 12.7526 50.1973 10.4839C49.9137 9.91674 49.0629 10.2003 49.0629 10.7675C48.4958 13.8869 45.66 15.3048 43.9585 17.5735V17.2899C43.9585 14.4541 43.6749 11.3347 44.8092 8.49883C45.66 6.23017 47.645 3.11077 49.9137 2.26002C53.0331 1.1257 54.7346 2.82719 55.3017 5.09584C55.5853 7.08092 57.854 7.64808 57.2868 5.66301C56.1525 1.1257 53.3167 -1.42654 48.4958 0.842114C45.66 2.26002 43.3913 4.81226 42.257 7.3645C40.2719 4.52868 37.1525 3.39435 33.7495 5.37943C30.9137 7.08092 30.0629 9.06599 29.7794 11.6182C28.0779 11.0511 26.0928 11.6182 24.6749 13.3197C22.4062 15.5884 22.6898 18.9914 24.6749 21.5436C24.9585 21.8272 25.5256 22.1108 25.8092 21.5436ZM41.1226 43.3794C36.3017 44.5137 35.7346 37.9914 35.7346 33.7376C36.3017 34.3048 37.1525 34.872 38.2868 35.4391C41.4062 37.1406 41.6898 40.5436 41.6898 43.663C41.4062 43.3794 41.1226 43.3794 41.1226 43.3794ZM46.2271 53.3048C47.9286 51.3197 49.3465 49.6182 49.9137 47.3496C50.4809 47.9167 51.048 49.0511 51.048 49.6182C51.6152 51.3197 51.048 53.0212 50.1973 54.7227C49.0629 57.2749 46.2271 59.8272 43.3913 58.1257V56.9914C44.242 55.5735 45.66 54.1555 46.2271 53.3048ZM47.0779 16.4391C48.2122 15.3048 49.6301 14.1705 50.1973 12.7526C51.048 14.4541 50.7644 16.7227 49.9137 18.4242C49.0629 20.4093 46.7943 22.9615 44.5256 21.5436C44.5256 20.9764 45.0928 18.7078 47.0779 16.4391ZM37.1525 13.8869C38.0032 15.5884 38.0032 17.2899 37.1525 18.7078C36.3017 17.5735 35.451 16.4391 34.3167 15.3048C33.4659 14.4541 32.6152 13.6033 32.048 12.7526C33.7495 11.0511 36.0182 12.1854 37.1525 13.8869ZM25.242 15.0212C26.0928 13.3197 28.0779 12.1854 29.7794 13.3197C29.7794 13.6033 29.2122 15.0212 28.0779 16.4391C26.9435 17.5735 26.3764 18.7078 25.242 19.8421C24.6749 18.4242 24.3913 16.7227 25.242 15.0212Z" fill="#646E82"/>
</svg>
