<svg width="24" height="24" viewBox="0 0 24 24" fill="none" xmlns="http://www.w3.org/2000/svg">
<path fill-rule="evenodd" clip-rule="evenodd" d="M8.57142 0.857144C8.57142 0.3838 8.95522 0 9.42857 0H14.5714C15.0448 0 15.4286 0.3838 15.4286 0.857144V2.29974C15.7726 2.42143 16.1084 2.56071 16.4344 2.71683L17.4547 1.69649C17.7895 1.36167 18.3321 1.36167 18.667 1.69649L22.3035 5.33303C22.4642 5.49375 22.5545 5.71167 22.5545 5.93916C22.5545 6.16645 22.4642 6.38437 22.3035 6.54508L21.2832 7.56563C21.4393 7.89164 21.5786 8.22744 21.7003 8.57142H23.1429C23.6162 8.57142 24 8.95522 24 9.42857V14.5714C24 15.0448 23.6162 15.4286 23.1429 15.4286H21.7003C21.5786 15.7726 21.4393 16.1084 21.2832 16.4344L22.3035 17.4549C22.4644 17.6156 22.5545 17.8336 22.5545 18.061C22.5545 18.2883 22.4644 18.5063 22.3035 18.667L18.667 22.3035C18.3323 22.6383 17.7895 22.6383 17.4549 22.3035L16.4344 21.2832C16.1084 21.4393 15.7726 21.5786 15.4286 21.7003V23.1429C15.4286 23.6162 15.0448 24 14.5714 24H9.42857C8.95522 24 8.57142 23.6162 8.57142 23.1429V21.7003C8.22742 21.5786 7.89163 21.4393 7.56562 21.2832L6.54528 22.3035C6.21046 22.6383 5.66766 22.6383 5.33303 22.3035L1.69649 18.667C1.53578 18.5063 1.44547 18.2883 1.44547 18.061C1.44547 17.8336 1.53578 17.6156 1.69649 17.4549L2.71683 16.4344C2.5609 16.1084 2.42143 15.7726 2.29974 15.4286H0.857142C0.383798 15.4286 -1.82172e-06 15.0448 -1.82172e-06 14.5714V9.42857C-1.82172e-06 8.95522 0.383798 8.57142 0.857142 8.57142H2.29974C2.42143 8.22742 2.56071 7.89163 2.71683 7.56563L1.69649 6.54528C1.36167 6.21046 1.36167 5.66766 1.69649 5.33303L5.33303 1.69649C5.66766 1.36167 6.21045 1.36167 6.54508 1.69649L7.56562 2.71683C7.89164 2.5609 8.22744 2.42143 8.57142 2.29974V0.857144ZM5.99999 12C5.99999 8.68625 8.68623 6.00001 12 6.00001C15.3138 6.00001 18 8.68625 18 12C18 15.3138 15.3138 18 12 18C8.68623 18 5.99999 15.3138 5.99999 12Z" fill="#646E82"/>
</svg>
