<svg width="28" height="28" viewBox="0 0 28 28" fill="none" xmlns="http://www.w3.org/2000/svg">
<path d="M14 0C6.2788 0 0 6.2788 0 14C0 21.7212 6.2788 28 14 28C21.7212 28 28 21.7212 28 14C28 6.2788 21.7212 0 14 0ZM14 1.8262C20.7342 1.8262 26.1739 7.26587 26.1739 14.0001C26.1739 20.7344 20.7342 26.174 14 26.174C7.26576 26.174 1.82609 20.7344 1.82609 14.0001C1.82609 7.26587 7.26576 1.8262 14 1.8262ZM8.82614 8.2175C7.64962 8.2175 6.69576 9.17136 6.69576 10.3479C6.69576 11.5244 7.64962 12.4783 8.82614 12.4783C10.0027 12.4783 10.9565 11.5244 10.9565 10.3479C10.9565 9.17136 10.0027 8.2175 8.82614 8.2175ZM19.174 8.2175C17.9974 8.2175 17.0436 9.17136 17.0436 10.3479C17.0436 11.5244 17.9974 12.4783 19.174 12.4783C20.3505 12.4783 21.3043 11.5244 21.3043 10.3479C21.3043 9.17136 20.3505 8.2175 19.174 8.2175ZM7.20929 16.7392C6.9159 16.7562 6.64821 16.922 6.48641 17.2148C6.33229 17.5092 6.35309 17.8839 6.54352 18.1563C8.17564 20.5977 10.9098 22.2176 14 22.2176C17.0903 22.2176 19.8245 20.5977 21.4566 18.1563C21.723 17.758 21.6077 17.1579 21.2092 16.8915C20.8108 16.625 20.2013 16.7403 19.9348 17.1388C18.6167 19.1106 16.4557 20.3916 14.0001 20.3916C11.5444 20.3916 9.38348 19.1109 8.06527 17.1388C7.81816 16.8488 7.50266 16.7223 7.20929 16.7393V16.7392Z" fill="#646E82"/>
</svg>
