<svg width="21" height="21" viewBox="0 0 21 21" fill="none" xmlns="http://www.w3.org/2000/svg">
<path d="M1.9734 10.0123H20.9576C20.8561 9.84969 20.7058 9.71762 20.5252 9.63207L1.541 0.855505C1.36231 0.770777 1.16121 0.734861 0.961345 0.752163C0.761473 0.769468 0.570962 0.839013 0.412385 0.952966C0.256479 1.0661 0.138004 1.2176 0.0709082 1.39C0.00363621 1.56256 -0.00942675 1.74899 0.0327702 1.92808L1.9734 10.0123Z" fill="#646E82"/>
<path d="M1.97363 10.9879L0.0540107 19.072C-0.0137901 19.3637 0.0665467 19.6682 0.272243 19.8982C0.477766 20.1283 0.786038 20.2585 1.10882 20.2518C1.27426 20.2538 1.4374 20.2169 1.58342 20.1446L20.5676 11.368C20.7483 11.2825 20.8985 11.1504 21.0001 10.9878L1.97363 10.9879Z" fill="#646E82"/>
</svg>
