<svg width="37" height="33" viewBox="0 0 37 33" fill="none" xmlns="http://www.w3.org/2000/svg">
<path d="M13.3567 3.1271L5.17263 11.2566C3.82258 12.5976 2.40985 13.8847 1.46938 15.5663C-0.424006 18.9584 -0.482551 23.1226 1.26458 26.5815C2.15483 28.3419 3.51749 29.8407 5.14338 30.9617C6.7442 32.0619 8.60419 32.7013 10.5311 32.9255C14.0587 33.3365 17.6575 32.0246 20.1612 29.5417C21.0556 28.6574 21.946 27.7689 22.8404 26.8804C24.5583 25.1739 26.2804 23.4634 27.9982 21.757C29.5782 20.1876 31.1539 18.6223 32.7339 17.0529C33.8039 15.9901 34.97 14.9604 35.7433 13.6526C36.7171 12.0084 37.1685 10.0155 36.9428 8.11815C36.7046 6.0879 35.8478 4.20296 34.4099 2.72905C33.0682 1.35475 31.2542 0.391556 29.3441 0.10921C27.3294 -0.189725 25.2939 0.121666 23.4924 1.08493C22.0964 1.83642 21.0348 3.00312 19.9272 4.10745L7.25437 16.6957C6.09241 17.8541 5.41111 19.382 5.3317 21.0137C5.23557 23.0647 6.20109 25.0866 7.82698 26.3363C9.45707 27.5902 11.6431 28.022 13.6284 27.4283C14.7821 27.0837 15.7434 26.4277 16.5835 25.589L20.6713 21.5285C22.268 19.9424 23.8605 18.3606 25.4571 16.7746C25.7288 16.5047 26.0004 16.2349 26.2763 15.9608C26.665 15.5747 26.6901 14.873 26.2763 14.4911C25.8583 14.1091 25.2105 14.0801 24.7967 14.4911C23.8144 15.4668 22.8323 16.4425 21.8542 17.414C20.1614 19.0955 18.4728 20.7728 16.7799 22.4544C16.2408 22.99 15.7016 23.5256 15.1666 24.057C15.0746 24.1483 14.9827 24.2397 14.8907 24.331C14.803 24.4182 14.711 24.5012 14.619 24.5843C14.5522 24.6424 14.2721 24.8209 14.548 24.6507C14.4393 24.7171 14.339 24.8043 14.2303 24.8749C14.059 24.987 13.8792 25.0908 13.6911 25.1821C13.6368 25.2071 13.5866 25.232 13.5323 25.2569C13.4571 25.2901 13.2815 25.3275 13.5657 25.2444C13.4571 25.2776 13.3484 25.3275 13.2397 25.3648C13.0391 25.4313 12.8343 25.4852 12.6253 25.5309C12.5208 25.5517 12.4163 25.5683 12.3118 25.5849C12.1697 25.6098 12.6002 25.5558 12.3912 25.5724C12.316 25.5807 12.2408 25.589 12.1614 25.5932C11.9524 25.6056 11.7392 25.6098 11.5302 25.6015C11.4341 25.5973 11.3379 25.589 11.2418 25.5807C11.1582 25.5724 10.9701 25.5226 11.292 25.589C11.2251 25.5766 11.1582 25.5683 11.0913 25.5558C10.8907 25.5184 10.6943 25.4728 10.502 25.4146C10.3891 25.3814 10.2805 25.3441 10.1718 25.3067C10.1258 25.2901 10.0799 25.2735 10.0381 25.2527C9.96282 25.2237 10.0004 25.2403 10.1551 25.3025C10.1175 25.2859 10.084 25.2693 10.0464 25.2569C9.84996 25.1655 9.65769 25.0659 9.47378 24.9538C9.38183 24.8957 9.28987 24.8375 9.2021 24.7753C9.1603 24.7462 9.12268 24.7171 9.08089 24.6881C8.93459 24.5843 9.27733 24.8458 9.05581 24.6632C8.89698 24.5344 8.75068 24.3933 8.60857 24.248C8.53752 24.1732 8.47064 24.0985 8.40376 24.0238C8.36615 23.9822 8.33271 23.92 8.28673 23.8826C8.38705 24.0155 8.40376 24.0362 8.34107 23.949C8.32435 23.9241 8.30345 23.8992 8.28673 23.8784C8.16552 23.7124 8.05267 23.5338 7.95235 23.3553C7.89384 23.2515 7.8395 23.1477 7.78935 23.0439C7.76845 22.9983 7.74755 22.9567 7.72665 22.9111C7.69321 22.8363 7.70993 22.8778 7.77681 23.0273C7.76009 22.9899 7.74755 22.9567 7.73501 22.9194C7.65977 22.7242 7.59289 22.5208 7.54274 22.3173C7.51766 22.226 7.49676 22.1305 7.48005 22.0392C7.46751 21.981 7.45915 21.9271 7.45079 21.8689C7.40481 21.5825 7.46751 22.0475 7.45079 21.8606C7.41317 21.433 7.44243 21.0344 7.45915 20.6067C7.44661 20.9223 7.43825 20.7396 7.45497 20.6566C7.46333 20.5984 7.47587 20.5445 7.48423 20.4863C7.50095 20.3908 7.52602 20.2995 7.54692 20.2082C7.60544 19.984 7.68067 19.7681 7.76009 19.5522C7.83533 19.3487 7.65142 19.7805 7.74337 19.5854C7.76427 19.5397 7.78517 19.4982 7.80607 19.4525C7.85205 19.357 7.9022 19.2615 7.95654 19.166C8.07357 18.9584 8.20315 18.7633 8.34526 18.5723C8.47065 18.4021 8.21987 18.7259 8.31182 18.618C8.34526 18.5806 8.37451 18.5391 8.40795 18.5017C8.48737 18.4104 8.57096 18.3191 8.65456 18.2319L8.70472 18.1821C8.7298 18.1571 8.75905 18.1281 8.78414 18.1032C9.12688 17.7627 9.46962 17.4223 9.81655 17.0776L14.1802 12.7431C15.9065 11.0283 17.6369 9.30944 19.3631 7.59479C20.4624 6.50284 21.5658 5.40678 22.6651 4.31483C22.7361 4.24424 22.8072 4.17366 22.8782 4.10308C23.0956 3.88718 23.3296 3.68374 23.5679 3.4886C23.7392 3.34743 23.3673 3.63392 23.547 3.50521C23.5971 3.47199 23.6431 3.43462 23.6933 3.39726C23.7727 3.33913 23.8563 3.28515 23.9399 3.22703C24.1363 3.09832 24.3411 2.97377 24.5501 2.86582C24.7382 2.76202 24.9347 2.67483 25.1311 2.58349C25.3276 2.49215 24.8929 2.67898 25.0977 2.59594C25.1353 2.58349 25.1687 2.56688 25.2064 2.55442C25.3317 2.5046 25.4613 2.45893 25.5909 2.41741C25.9921 2.28455 26.4059 2.1849 26.8239 2.11432C26.8824 2.10602 26.9368 2.09771 26.9953 2.08941C26.6693 2.15169 26.8657 2.10602 26.9451 2.09772C27.0413 2.08526 27.1374 2.07696 27.2335 2.06865C27.4634 2.05205 27.6933 2.04374 27.9232 2.04374C28.1322 2.04374 28.3453 2.0562 28.5543 2.0728C28.6505 2.08111 28.7466 2.08941 28.8427 2.10187C29.0601 2.12678 28.5794 2.06035 28.7926 2.09356C28.8678 2.10602 28.943 2.11847 29.0183 2.13093C29.4363 2.20566 29.8501 2.31361 30.2513 2.45062C30.36 2.48799 30.4687 2.52951 30.5773 2.57102C30.6066 2.58348 30.7905 2.65821 30.615 2.58348C30.4394 2.5129 30.6233 2.58763 30.6526 2.60008C30.8657 2.69558 31.0789 2.79937 31.2837 2.91562C31.476 3.01942 31.6599 3.13567 31.8396 3.25608C31.9232 3.31005 32.0026 3.36818 32.0862 3.42631C32.1322 3.45952 32.1824 3.50104 32.2325 3.53426C31.965 3.36818 32.1949 3.50934 32.2576 3.55917C32.592 3.82904 32.9013 4.12797 33.1855 4.44766C33.2649 4.539 33.3444 4.63033 33.4238 4.72583C33.4405 4.74659 33.5659 4.90851 33.453 4.7632C33.3402 4.61789 33.4656 4.77981 33.4823 4.80057C33.6244 4.99155 33.7582 5.19084 33.8835 5.39428C33.9964 5.57696 34.1009 5.76795 34.197 5.95894C34.243 6.04612 34.2848 6.13332 34.3224 6.22051C34.3475 6.27448 34.3684 6.32846 34.3935 6.37827C34.243 6.08765 34.3684 6.3243 34.3977 6.39903C34.5523 6.79346 34.6735 7.20037 34.7655 7.6114C34.7905 7.7235 34.8114 7.8356 34.8323 7.9477C34.8491 8.03489 34.8741 8.37119 34.8449 8.00998C34.8658 8.23833 34.895 8.46253 34.9034 8.69503C34.9201 9.13513 34.8992 9.57107 34.8532 10.007C34.8449 10.0776 34.8114 10.1897 34.87 9.90321C34.8574 9.95718 34.8532 10.0153 34.8449 10.0734C34.8282 10.1772 34.8073 10.281 34.7864 10.3848C34.7404 10.6007 34.6902 10.8166 34.6275 11.0242C34.569 11.2277 34.498 11.4269 34.4227 11.6262C34.4018 11.6802 34.3809 11.7342 34.36 11.7882C34.2806 11.9874 34.4645 11.5557 34.3726 11.7549C34.3224 11.8629 34.2764 11.9667 34.2221 12.0705C34.0215 12.4774 33.7832 12.8635 33.5157 13.233C33.4906 13.2662 33.4697 13.2952 33.4447 13.3285C33.3151 13.507 33.5993 13.1375 33.4614 13.3077C33.3903 13.3949 33.3193 13.4779 33.2482 13.5651C33.1186 13.7104 32.9849 13.8516 32.8511 13.9886L18.6819 28.0634C18.5732 28.1713 18.4645 28.2751 18.3517 28.3789C18.1886 28.5284 18.0173 28.6737 17.8459 28.8149C17.7999 28.8522 17.7498 28.8896 17.7038 28.927C17.5324 29.064 17.9044 28.7817 17.7247 28.9104C17.6286 28.9809 17.5324 29.0515 17.4321 29.1221C17.0601 29.3795 16.6714 29.6162 16.2702 29.8279C16.0988 29.9193 15.9232 30.0023 15.7435 30.0853C15.6892 30.1103 15.6348 30.131 15.5847 30.1559C15.3882 30.2431 15.8229 30.0604 15.6181 30.1435C15.5094 30.185 15.4008 30.2307 15.2921 30.2722C14.8783 30.4258 14.452 30.5545 14.0215 30.6583C13.8166 30.7081 13.6077 30.7496 13.4028 30.787C13.3067 30.8036 13.2148 30.8202 13.1186 30.8327C13.0434 30.8451 12.8344 30.8576 13.1688 30.8285C13.1019 30.8327 13.035 30.8451 12.9682 30.8534C12.5418 30.8991 12.1113 30.9199 11.6808 30.9157C11.4718 30.9116 11.2586 30.9033 11.0496 30.8908C10.9451 30.8825 10.8406 30.8742 10.7361 30.8659C10.6442 30.8576 10.2137 30.787 10.5857 30.8534C9.72462 30.7081 8.89291 30.5171 8.07786 30.1933C8.02353 30.1725 7.96919 30.1476 7.91485 30.1269C8.2158 30.239 8.01517 30.1684 7.94829 30.1393C7.86052 30.102 7.76856 30.0604 7.68079 30.0189C7.46762 29.9193 7.25864 29.8113 7.05383 29.6951C6.66511 29.4792 6.28892 29.2384 5.92947 28.9726C5.88767 28.9436 5.85005 28.9104 5.80826 28.8813C6.05904 29.0391 5.88768 28.9436 5.82916 28.8979C5.74974 28.8356 5.67033 28.7734 5.5951 28.7069C5.40701 28.5492 5.22728 28.3872 5.05173 28.217C4.72989 27.9056 4.42477 27.5776 4.14474 27.2288C4.1113 27.1915 4.08204 27.15 4.05278 27.1126C3.96501 27.0005 4.21161 27.3243 4.08622 27.1583C4.01517 27.0628 3.94411 26.9673 3.87305 26.8676C3.74766 26.6891 3.62644 26.5106 3.5136 26.3237C3.27953 25.9418 3.06636 25.5432 2.88246 25.1363C2.85738 25.0823 2.83648 25.0283 2.8114 24.9785C2.94515 25.2359 2.86574 25.1114 2.83648 25.0408C2.79468 24.9411 2.75706 24.8456 2.71945 24.746C2.64003 24.5301 2.5648 24.3101 2.49792 24.09C2.37671 23.6873 2.2764 23.2762 2.20534 22.8652C2.18445 22.7531 2.16773 22.641 2.15101 22.5247C2.11757 22.3088 2.18027 22.7905 2.15937 22.5746C2.15519 22.5372 2.15101 22.4998 2.14683 22.4625C2.12175 22.2341 2.10503 22.0099 2.09249 21.7815C2.07159 21.3456 2.07577 20.9055 2.10921 20.4696C2.11757 20.3741 2.12593 20.2786 2.13429 20.1872C2.14265 20.0959 2.20953 19.6973 2.14683 20.0668C2.18445 19.8593 2.20952 19.6517 2.25132 19.4482C2.3391 19.0164 2.45195 18.5888 2.58988 18.1736C2.65676 17.9743 2.732 17.775 2.80723 17.5757C2.82813 17.5218 2.85321 17.4678 2.87411 17.4138C2.7738 17.6795 2.81141 17.5633 2.83649 17.501C2.89083 17.3764 2.94935 17.2519 3.00786 17.1315C3.19595 16.7454 3.40912 16.3676 3.64318 16.0063C3.76021 15.8237 3.88561 15.6451 4.01518 15.4666C4.04862 15.4209 4.09042 15.3711 4.12386 15.3213C3.96503 15.5704 4.06116 15.4002 4.10714 15.342C4.18237 15.2466 4.26179 15.1552 4.33702 15.0639C4.52511 14.8438 4.72574 14.6321 4.93054 14.4286C5.03086 14.3248 5.13535 14.2252 5.23985 14.1214L14.0422 5.3777C14.3056 5.11613 14.5689 4.85457 14.8364 4.58882C15.2251 4.2027 15.2502 3.50104 14.8364 3.11908C14.4143 2.74541 13.7706 2.71635 13.3568 3.12739L13.3567 3.1271Z" fill="black"/>
</svg>
