<svg width="283" height="283" viewBox="0 0 283 283" fill="none" xmlns="http://www.w3.org/2000/svg">
<circle cx="141.5" cy="141.5" r="141.5" fill="#969FAF"/>
<path d="M178.836 114.941C178.836 135.794 161.931 152.699 141.077 152.699C120.223 152.699 103.319 135.793 103.319 114.941C103.319 94.0878 120.223 77.1818 141.077 77.1818C161.93 77.1818 178.836 94.0878 178.836 114.941" fill="#646E82"/>
<path d="M206.138 197.371C198.692 176.631 181.852 160.499 160.579 154.294C159.871 154.118 159.161 154.118 158.629 154.471C153.311 157.308 147.461 158.903 141.079 158.903C134.697 158.903 128.847 157.308 123.529 154.471C122.997 154.116 122.287 154.116 121.579 154.294C100.307 160.5 83.4654 176.63 76.0201 197.371C73.8932 203.221 78.1469 209.248 84.3518 209.248H197.983C204.012 209.248 208.265 203.045 206.139 197.371H206.138Z" fill="#646E82"/>
</svg>
