<svg width="18" height="11" viewBox="0 0 18 11" fill="none" xmlns="http://www.w3.org/2000/svg">
<path d="M0.210176 5.92388L5.73824 10.848C5.99181 11.074 6.37512 11.0443 6.59345 10.7835C6.81261 10.522 6.78468 10.1274 6.53112 9.90138L2.29375 6.12748L17.3936 6.12748C17.7284 6.12748 18 5.84771 18 5.50223C18 5.15674 17.7284 4.87697 17.3936 4.87697L2.14139 4.87697L4.55663 2.6543L6.44331 1.11588C6.70562 0.901548 6.75075 0.508361 6.54288 0.237307C6.42329 0.0814247 6.24559 0 6.06648 0C5.93476 0 5.80191 0.0439129 5.6905 0.134939L3.77674 1.69748L0.203094 4.98455C0.0727825 5.10408 -0.00111389 5.27595 1.33514e-05 5.45596C0.00170517 5.63598 0.0775757 5.8064 0.210148 5.92389L0.210176 5.92388Z" fill="#646E82"/>
</svg>
