<svg width="376" height="256" viewBox="0 0 376 256" fill="none" xmlns="http://www.w3.org/2000/svg">
<path fill-rule="evenodd" clip-rule="evenodd" d="M343.44 0.213745C351.737 0.213745 359.691 3.52628 365.528 9.41681C371.913 15.3075 375.544 23.5995 375.544 32.2808C375.544 39.7287 372.877 46.8848 368.096 52.4835L365.528 55.1501L173.888 246.79C168.044 252.676 160.091 255.993 151.8 255.993C144.883 255.993 138.212 253.691 132.8 249.514L129.711 246.79L10.2421 127.321C2.07025 119.43 -1.26829 107.779 1.48171 96.758C4.23171 85.7367 12.6536 77.018 23.5697 73.894C33.1271 71.1544 43.3244 73.0555 51.195 78.8628L54.419 81.5868L151.799 179.275L321.346 9.40814C327.189 3.51748 335.143 0.205078 343.434 0.205078L343.44 0.213745Z" fill="black"/>
</svg>
