<svg width="547" height="547" viewBox="0 0 547 547" fill="none" xmlns="http://www.w3.org/2000/svg">
<path d="M507.732 6.7188L288.959 225.492C280 234.451 265.813 234.451 257.599 225.492L38.8255 6.7188C29.8671 -2.2396 15.6801 -2.2396 7.46546 6.7188C-1.49294 15.6772 -1.49294 29.8641 7.46546 38.0788L226.239 256.852C235.197 265.811 235.197 279.997 226.239 288.212L6.7188 507.732C-2.2396 516.691 -2.2396 530.877 6.7188 539.092C15.6772 548.051 29.8641 548.051 38.0788 539.092L256.852 320.319C265.811 311.36 279.997 311.36 288.212 320.319L507.732 539.839C516.691 548.797 530.877 548.797 539.092 539.839C548.051 530.88 548.051 516.693 539.092 508.479L321.065 288.959C312.107 280 312.107 265.813 321.065 257.599L539.839 38.8255C548.797 29.8671 548.797 15.6801 539.839 7.46546C530.88 -1.49814 516.693 -1.49814 507.735 6.71546L507.732 6.7188Z" fill="black"/>
</svg>
