<svg width="41" height="41" viewBox="0 0 41 41" fill="none" xmlns="http://www.w3.org/2000/svg">
<path d="M34.0123 0.0169181C33.8822 0.0464604 33.7635 0.113168 33.6711 0.208939L3.60665 30.2648C3.53897 30.3382 3.48797 30.4254 3.45746 30.5207L0.0410535 40.0841C-0.0495046 40.3333 0.0124572 40.6125 0.200246 40.7998C0.387563 40.9875 0.666853 41.0495 0.916129 40.959L10.4823 37.5435C10.5796 37.5068 10.6672 37.4487 10.7383 37.3729L40.8027 7.3171C41.0658 7.05074 41.0658 6.62239 40.8027 6.35651L34.6529 0.208475C34.4875 0.0374225 34.2449 -0.0354844 34.0123 0.0164547V0.0169181ZM34.162 1.66084L39.3296 6.84779L36.212 9.9645L31.023 4.79841L34.162 1.66084ZM30.062 5.75912L35.2296 10.9466L10.2691 35.9L5.08016 30.7125L30.062 5.75912ZM4.37553 31.9519L9.00928 36.5838L1.81322 39.1669L4.37553 31.9519Z" fill="url(#paint0_linear_9_770)"/>
<defs>
<linearGradient id="paint0_linear_9_770" x1="20.5" y1="8.07671e-07" x2="34.4657" y2="35.5069" gradientUnits="userSpaceOnUse">
<stop stop-color="#EEF0F5"/>
<stop offset="1" stop-color="#E2E4EA"/>
</linearGradient>
</defs>
</svg>
