<svg width="13" height="13" viewBox="0 0 13 13" fill="none" xmlns="http://www.w3.org/2000/svg">
<path fill-rule="evenodd" clip-rule="evenodd" d="M9.14431 8.3785L12.8411 12.0754C13.0529 12.2872 13.0529 12.6295 12.8412 12.8413C12.7355 12.9469 12.5969 13 12.4582 13C12.3195 13 12.1809 12.9469 12.0752 12.8413L8.37841 9.14441C7.49389 9.8605 6.36993 10.2917 5.14579 10.2917C2.30857 10.2917 0 7.98307 0 5.14582C0 2.30857 2.30854 0 5.14576 0C7.98298 0 10.2915 2.30859 10.2915 5.14584C10.2915 6.37 9.86039 7.49397 9.14431 8.3785ZM1.08333 5.14583C1.08333 7.38617 2.90546 9.20833 5.14578 9.20833C7.38607 9.20833 9.20824 7.38617 9.20824 5.14583C9.20824 2.90548 7.3861 1.08333 5.14578 1.08333C2.90546 1.08333 1.08333 2.90548 1.08333 5.14583Z" fill="#646E82"/>
</svg>
