<?xml version="1.0" encoding="utf-8"?><svg viewBox="0 0 650 547" xmlns="http://www.w3.org/2000/svg" xmlns:xlink="http://www.w3.org/1999/xlink"><style>:root>svg{display:none}:root>svg:target{display:block}</style><svg viewBox="0 0 37 33" id="attach" xmlns="http://www.w3.org/2000/svg"><path d="M13.357 3.127l-8.184 8.13c-1.35 1.34-2.763 2.628-3.704 4.31-1.893 3.391-1.952 7.556-.204 11.014.89 1.76 2.252 3.26 3.878 4.38 1.601 1.1 3.461 1.74 5.388 1.965 3.528.41 7.126-.901 9.63-3.384.895-.885 1.785-1.773 2.68-2.662l5.157-5.123 4.736-4.704c1.07-1.063 2.236-2.093 3.01-3.4.973-1.645 1.425-3.638 1.199-5.535-.238-2.03-1.095-3.915-2.533-5.389-1.342-1.374-3.156-2.337-5.066-2.62-2.015-.299-4.05.013-5.852.976-1.396.751-2.457 1.918-3.565 3.022L7.254 16.696a6.525 6.525 0 00-1.922 4.318c-.096 2.05.87 4.073 2.495 5.322 1.63 1.254 3.816 1.686 5.801 1.092 1.154-.344 2.115-1 2.956-1.839l4.087-4.06 4.786-4.754.82-.814c.388-.386.413-1.088 0-1.47-.419-.382-1.067-.41-1.48 0l-2.943 2.923-5.074 5.04-1.613 1.603-.276.274c-.088.087-.18.17-.272.253-.067.058-.347.237-.071.067-.109.066-.209.153-.318.224a4.87 4.87 0 01-.539.307l-.159.075c-.075.033-.25.07.034-.013-.109.034-.218.084-.326.12-.2.067-.406.121-.615.167-.104.02-.209.037-.313.054-.142.025.288-.03.08-.013a6.421 6.421 0 01-.861.03 6.816 6.816 0 01-.29-.021c-.083-.009-.27-.058.051.008-.067-.012-.134-.02-.2-.033a5.527 5.527 0 01-1.054-.303c-.075-.03-.038-.013.117.05-.037-.017-.071-.034-.109-.046a5.797 5.797 0 01-.572-.303 6.157 6.157 0 01-.272-.179l-.121-.087c-.146-.104.196.158-.025-.025a5.294 5.294 0 01-.652-.64c-.038-.04-.071-.103-.117-.14.1.133.117.153.054.066-.017-.025-.038-.05-.054-.07a5.285 5.285 0 01-.498-.835c-.02-.046-.041-.087-.062-.133a1.864 1.864 0 00.05.116 5.044 5.044 0 01-.326-1.158c-.046-.287.017.178 0-.008-.038-.428-.009-.827.008-1.254-.012.315-.02.133-.004.05.008-.059.02-.113.03-.17.016-.096.041-.188.062-.279.058-.224.134-.44.213-.656.075-.203-.109.229-.017.033l.063-.133a5.587 5.587 0 01.54-.88c.125-.17-.126.154-.034.046.033-.037.063-.079.096-.116.08-.092.163-.183.247-.27l.05-.05.08-.079 1.032-1.025 4.363-4.335 5.183-5.148 3.302-3.28.213-.212c.218-.216.452-.42.69-.614.171-.142-.2.145-.021.016.05-.033.096-.07.146-.108.08-.058.163-.112.247-.17.196-.129.401-.253.61-.361.188-.104.385-.191.581-.283.197-.09-.238.096-.033.013.037-.013.07-.03.108-.042a8.345 8.345 0 011.617-.44l.172-.025c-.326.063-.13.017-.05.009.096-.013.192-.021.288-.03a8.026 8.026 0 011.32.004c.098.01.194.017.29.03.217.025-.264-.042-.05-.008l.225.037a8.397 8.397 0 011.56.44c.029.012.213.087.037.012a7.455 7.455 0 01.669.332c.192.104.376.22.556.341.083.054.163.112.246.17.046.034.096.075.147.108-.268-.166-.038-.025.025.025.334.27.643.569.927.889.08.091.16.182.239.278.017.02.142.183.029.037-.113-.145.013.017.03.038.141.19.275.39.4.593a7.43 7.43 0 01.44.827c.024.053.045.107.07.157-.15-.29-.025-.054.005.021.154.394.275.801.367 1.212.026.112.046.225.067.337.017.087.042.423.013.062.02.228.05.453.058.685a9.16 9.16 0 01-.05 1.312c-.008.07-.042.183.017-.104-.013.054-.017.112-.025.17-.017.104-.038.208-.059.312a7.95 7.95 0 01-.363 1.241l-.063.162c-.08.2.105-.232.013-.033-.05.108-.097.212-.15.315-.201.407-.44.793-.707 1.163l-.071.095c-.13.179.154-.19.016-.02-.07.087-.142.17-.213.257-.13.145-.263.287-.397.424l-14.17 14.074c-.108.108-.216.212-.33.316a12.7 12.7 0 01-.505.436l-.142.112c-.172.137.2-.145.02-.017-.095.07-.192.142-.292.212-.372.258-.76.494-1.162.706-.171.091-.347.174-.527.257-.054.025-.108.046-.158.07-.197.088.238-.095.033-.012-.109.042-.217.088-.326.13a11.206 11.206 0 01-1.89.514c-.095.017-.187.033-.283.046-.076.012-.285.025.05-.005-.067.005-.134.017-.2.025a11.076 11.076 0 01-1.92.038l-.313-.025c-.092-.008-.522-.079-.15-.013-.861-.145-1.693-.336-2.508-.66-.054-.02-.109-.045-.163-.066.3.112.1.041.033.012a8.934 8.934 0 01-.894-.444 10.311 10.311 0 01-1.125-.722c-.041-.03-.079-.063-.12-.092.25.158.079.063.02.017a10.094 10.094 0 01-.777-.68c-.322-.312-.627-.64-.907-.99-.034-.037-.063-.078-.092-.115-.088-.113.159.211.033.045-.07-.095-.142-.19-.213-.29a10.767 10.767 0 01-.99-1.731c-.026-.055-.047-.109-.072-.159.134.258.055.133.025.063-.041-.1-.079-.195-.117-.295a10.434 10.434 0 01-.568-2.221c-.033-.216.03.266.008.05l-.012-.113a10.57 10.57 0 01-.038-1.993l.025-.282c.009-.091.076-.49.013-.12.037-.208.063-.415.104-.619.088-.432.201-.86.339-1.274.067-.2.142-.399.217-.598.021-.054.046-.108.067-.162-.1.265-.063.15-.038.087a10.667 10.667 0 011.179-2.034c.034-.046.075-.096.109-.146-.159.25-.063.08-.017.021.075-.095.155-.187.23-.278.188-.22.389-.432.594-.635.1-.104.204-.204.309-.308l8.802-8.743.794-.79c.39-.385.414-1.087 0-1.469-.422-.374-1.065-.403-1.48.008z"/></svg><svg viewBox="0 0 283 283" id="avatar" xmlns="http://www.w3.org/2000/svg"><circle cx="141.5" cy="141.5" r="141.5"/><path d="M178.836 114.941c0 20.853-16.905 37.758-37.759 37.758s-37.758-16.906-37.758-37.758c0-20.853 16.904-37.76 37.758-37.76 20.853 0 37.759 16.907 37.759 37.76M206.138 197.371c-7.446-20.74-24.286-36.872-45.559-43.077-.708-.176-1.418-.176-1.95.177-5.318 2.837-11.168 4.432-17.55 4.432-6.382 0-12.232-1.595-17.55-4.432-.532-.355-1.242-.355-1.95-.177-21.272 6.206-38.114 22.336-45.559 43.077-2.127 5.85 2.127 11.877 8.332 11.877h113.631c6.029 0 10.282-6.203 8.156-11.877h-.001z"/></svg><svg viewBox="0 0 18 11" id="back" xmlns="http://www.w3.org/2000/svg"><path d="M.21 5.924l5.528 4.924a.594.594 0 00.855-.065.639.639 0 00-.062-.882L2.294 6.127h15.1c.334 0 .606-.28.606-.625a.616.616 0 00-.606-.625H2.14l2.416-2.223 1.886-1.538a.64.64 0 00.1-.879.592.592 0 00-.852-.102L3.777 1.697.203 4.985a.634.634 0 00.007.939z"/></svg><svg viewBox="0 0 376 256" id="check" xmlns="http://www.w3.org/2000/svg"><path fill-rule="evenodd" clip-rule="evenodd" d="M343.44.214a31.095 31.095 0 0122.088 9.203 31.113 31.113 0 012.568 43.067l-2.568 2.666-191.64 191.64a31.137 31.137 0 01-22.088 9.203 31.091 31.091 0 01-19-6.479l-3.089-2.724L10.242 127.321a31.787 31.787 0 01-8.76-30.563A31.785 31.785 0 0123.57 73.894a31.782 31.782 0 0127.625 4.969l3.224 2.724 97.38 97.688L321.346 9.408A31.116 31.116 0 01343.434.205l.006.009z"/></svg><svg viewBox="0 0 547 547" id="close" xmlns="http://www.w3.org/2000/svg"><path d="M507.732 6.719L288.959 225.492c-8.959 8.959-23.146 8.959-31.36 0L38.826 6.719c-8.959-8.959-23.146-8.959-31.36 0-8.959 8.958-8.959 23.145 0 31.36l218.773 218.773c8.958 8.959 8.958 23.145 0 31.36L6.719 507.732c-8.959 8.959-8.959 23.145 0 31.36 8.958 8.959 23.145 8.959 31.36 0l218.773-218.773c8.959-8.959 23.145-8.959 31.36 0l219.52 219.52c8.959 8.958 23.145 8.958 31.36 0 8.959-8.959 8.959-23.146 0-31.36l-218.027-219.52c-8.958-8.959-8.958-23.146 0-31.36L539.839 38.826c8.958-8.959 8.958-23.146 0-31.36-8.959-8.964-23.146-8.964-32.104-.75l-.003.003z"/></svg><svg viewBox="0 0 4 19" id="controlls" xmlns="http://www.w3.org/2000/svg"><circle cx="2" cy="2.5" r="2"/><circle cx="2" cy="9.5" r="2"/><circle cx="2" cy="16.5" r="2"/></svg><svg viewBox="0 0 532 256" id="doublecheck" xmlns="http://www.w3.org/2000/svg"><path fill-rule="evenodd" clip-rule="evenodd" d="M499.44.214a31.095 31.095 0 0122.088 9.203 31.113 31.113 0 012.568 43.067l-2.568 2.666-191.64 191.64a31.137 31.137 0 01-22.088 9.203 31.091 31.091 0 01-19-6.479l-3.089-2.724-119.469-119.469a31.787 31.787 0 01-8.76-30.563 31.785 31.785 0 0122.088-22.864 31.782 31.782 0 0127.625 4.969l3.224 2.724 97.38 97.688L477.346 9.408A31.116 31.116 0 01499.434.205l.006.009zM51.64 78.87l3.219 2.724 116.89 118.609c12.401 12.578 12.573 32.724.391 45.516-.214.229-.432.453-.656.672-11.146 11.01-28.584 11.755-40.584 2.307l-2.88-2.573L10.68 127.328a31.796 31.796 0 01-8.754-30.563 31.776 31.776 0 0122.088-22.864 31.788 31.788 0 0127.625 4.97v-.001zM343.88.214a31.114 31.114 0 0122.088 9.203 31.113 31.113 0 010 45.733l-30.385 30.386c-12.573 12.572-32.807 13.041-45.954 1.062l-.989-.948c-11.875-11.844-11.901-31.079-.052-42.953L321.79 9.415A31.1 31.1 0 01343.878.212l.002.002z"/></svg><svg viewBox="0 0 41 41" id="edit" xmlns="http://www.w3.org/2000/svg"><path d="M34.012.017a.685.685 0 00-.34.192L3.606 30.265a.686.686 0 00-.15.256L.041 40.084a.682.682 0 00.875.875l9.566-3.416a.68.68 0 00.256-.17L40.803 7.317a.683.683 0 000-.96L34.653.208a.684.684 0 00-.64-.192zm.15 1.644l5.168 5.187-3.118 3.116-5.189-5.166 3.139-3.137zm-4.1 4.098l5.168 5.188L10.27 35.9l-5.19-5.188L30.062 5.76zM4.376 31.952l4.633 4.632-7.196 2.583 2.563-7.215z"/><defs><linearGradient id="hpaint0_linear_9_770" x1="20.5" y1="0" x2="34.466" y2="35.507" gradientUnits="userSpaceOnUse"><stop stop-color="#EEF0F5"/><stop offset="1" stop-color="#E2E4EA"/></linearGradient></defs></svg><svg viewBox="0 0 650 512" id="empty_list" xmlns="http://www.w3.org/2000/svg"><path d="M337.969 423.695c92.615 0 167.695-75.08 167.695-167.695S430.584 88.305 337.969 88.305 170.274 163.385 170.274 256s75.08 167.695 167.695 167.695z"/><path d="M564.583 220.903v-18.109a13.017 13.017 0 00-13.021-13.021h-45.959a13.021 13.021 0 01-13.021-13.021v-18.11a13.021 13.021 0 0113.021-13.021h1.451a13.02 13.02 0 0013.021-13.02v-18.11a13.023 13.023 0 00-13.021-13.021H173.135a13.021 13.021 0 00-13.021 13.021v18.11a13.021 13.021 0 0013.021 13.02 13.02 13.02 0 0113.021 13.021v18.11a13.021 13.021 0 01-13.021 13.021h-50.353a13.021 13.021 0 00-13.021 13.021v18.109a13.022 13.022 0 0013.021 13.021h19.758a13.029 13.029 0 019.207 3.814 13.03 13.03 0 013.814 9.207v18.11a13.021 13.021 0 01-13.021 13.021h-.048a13.022 13.022 0 00-13.021 13.021v18.109a13.02 13.02 0 0013.021 13.021h2.859a13.029 13.029 0 019.207 3.814 13.03 13.03 0 013.814 9.207v18.11a13.021 13.021 0 01-13.021 13.021H98.437a13.02 13.02 0 00-13.02 13.02v18.11a13.022 13.022 0 0013.02 13.021h415.608a13.021 13.021 0 0013.021-13.021v-18.11a13.021 13.021 0 00-13.021-13.02h-11.29a13.021 13.021 0 01-13.021-13.021v-18.11a13.021 13.021 0 0113.021-13.021h26.62a13.018 13.018 0 0013.021-13.021v-18.109a13.022 13.022 0 00-13.021-13.021H521.3a13.021 13.021 0 01-13.021-13.021v-18.11a13.021 13.021 0 0113.021-13.021h30.262a13.022 13.022 0 0013.021-13.021z"/><path d="M384.775 92.159h32.302M384.775 101.47h32.302M384.775 110.781h32.302M119.153 289.908h32.303M119.153 299.218h32.303M119.153 308.529h32.303M505.663 375.236h32.303M505.663 384.546h32.303M505.663 393.857h32.303" stroke-width="3" stroke-miterlimit="10" stroke-linecap="round"/><path d="M546.78 216.154c7.626 0 13.807-6.182 13.807-13.807s-6.181-13.807-13.807-13.807c-7.625 0-13.807 6.182-13.807 13.807s6.182 13.807 13.807 13.807zM510.344 219.471a7.159 7.159 0 100-14.318 7.159 7.159 0 000 14.318zM528.523 178.79c5.649 0 10.228-4.579 10.228-10.228s-4.579-10.228-10.228-10.228-10.228 4.579-10.228 10.228 4.579 10.228 10.228 10.228zM164.38 405.83c9.073 0 16.428-7.355 16.428-16.428s-7.355-16.428-16.428-16.428-16.428 7.355-16.428 16.428 7.355 16.428 16.428 16.428zM131.897 406.155a8.557 8.557 0 100-17.114 8.557 8.557 0 100 17.114zM121.847 374.128a4.936 4.936 0 100-9.872 4.936 4.936 0 000 9.872zM146.321 368.382c6.535 0 11.833-5.298 11.833-11.833s-5.298-11.833-11.833-11.833-11.833 5.298-11.833 11.833 5.298 11.833 11.833 11.833zM250.43 151.891c9.073 0 16.428-7.355 16.428-16.428s-7.355-16.428-16.428-16.428-16.428 7.355-16.428 16.428 7.355 16.428 16.428 16.428zM251.096 110.525a8.557 8.557 0 100-17.114 8.557 8.557 0 100 17.114zM308.091 114.374a7.406 7.406 0 100-14.813 7.406 7.406 0 000 14.813zM281.147 104.707a4.936 4.936 0 100-9.872 4.936 4.936 0 000 9.872zM286.883 138.546c6.535 0 11.833-5.298 11.833-11.833s-5.298-11.833-11.833-11.833-11.833 5.298-11.833 11.833 5.298 11.833 11.833 11.833zM483.963 291.561l-109.21 58.827V216.949l109.21-34.094v108.706z"/><path d="M374.753 216.949l-128.921-13.042-26.422-38.981a3.005 3.005 0 01.937-4.253 3.002 3.002 0 011.547-.43h121.445a2.994 2.994 0 012.659 1.612l28.755 55.094z"/><path d="M245.832 337.346l-45.024-9.368a2.996 2.996 0 01-2.389-2.937V197.73a3.005 3.005 0 011.107-2.327 3.002 3.002 0 012.505-.61l43.801 9.114v133.439zm172.387 27.513l-43.466-14.471V216.949l45.361 15.102a3.01 3.01 0 011.486 1.091c.368.511.566 1.125.566 1.755v127.115a3.005 3.005 0 01-1.245 2.434 3.006 3.006 0 01-2.702.413z"/><path d="M374.753 350.388l-128.921-13.042V203.907l128.921 13.042v133.439z"/><path d="M341.97 386.091l-131.544-5.248 35.406-43.497 128.921 13.042-30.408 34.683a2.989 2.989 0 01-2.375 1.02z"/><path d="M374.753 216.949l109.21-34.094-133.49-12.426 24.28 46.52z"/><path d="M245.832 337.346l128.921-60.198v-60.199l-128.921-13.042v133.439z"/><path d="M253.562 293.863s14.085-6.162 17.826-1.761c3.742 4.402 12.104 6.382 12.104 6.382l7.263-12.324 19.806 9.243 10.784 14.745-7.042 17.386s-14.305-.22-21.127 2.641c-6.823 2.861-24.649 3.081-24.649 3.081l-8.142-15.625s-10.344-15.185-6.823-23.768z"/><path d="M283.492 298.484a94.037 94.037 0 013.931 3.712c1.286 1.257 2.524 2.555 3.766 3.849 1.216 1.316 2.465 2.604 3.644 3.951 1.189 1.338 2.4 2.658 3.55 4.03l-2.536 1.254a268.32 268.32 0 01-1.651-7.194c-.519-2.406-.964-4.828-1.429-7.245-.848-4.854-1.638-9.72-2.012-14.681 1.796 4.639 3.176 9.372 4.499 14.118.62 2.383 1.261 4.761 1.827 7.155a269.213 269.213 0 011.604 7.205l.005.021a1.453 1.453 0 01-1.729 1.724 1.456 1.456 0 01-.811-.49c-1.146-1.375-2.231-2.8-3.337-4.208-1.117-1.399-2.164-2.856-3.244-4.286-1.053-1.452-2.111-2.9-3.121-4.389a94.793 94.793 0 01-2.956-4.526z"/><path d="M310.561 295.403c-.84 1.812-1.785 3.552-2.727 5.295-.967 1.725-1.94 3.447-2.967 5.132-.997 1.705-2.069 3.358-3.115 5.03-1.055 1.666-2.169 3.291-3.25 4.939l-1.528-2.304c2.004-.412 4.016-.786 6.031-1.143 2.024-.316 4.035-.692 6.069-.959 2.026-.301 4.064-.546 6.105-.776 2.048-.193 4.092-.402 6.166-.469-1.94.736-3.908 1.329-5.873 1.937a174.916 174.916 0 01-5.934 1.63c-1.98.535-3.982.96-5.971 1.446-1.998.445-3.999.873-6.008 1.263l-.031.007a1.487 1.487 0 01-1.767-1.486c.006-.296.1-.583.27-.825 1.135-1.612 2.236-3.246 3.398-4.839 1.169-1.588 2.312-3.194 3.531-4.748 1.19-1.574 2.432-3.112 3.681-4.646 1.274-1.517 2.545-3.036 3.92-4.484z"/><path d="M314.302 327.534c-1.624-.77-3.161-1.659-4.707-2.537a127.705 127.705 0 01-4.519-2.791c-2.981-1.904-5.866-3.938-8.697-6.044l2.166-.428c-1.712 2.79-3.486 5.542-5.389 8.216-.932 1.349-1.92 2.664-2.914 3.976-1.016 1.297-2.033 2.595-3.154 3.829.575-1.565 1.255-3.067 1.935-4.569.703-1.487 1.411-2.972 2.176-4.422 1.489-2.924 3.108-5.771 4.789-8.579a1.483 1.483 0 012.04-.513l.113.075.013.01c2.847 2.085 5.641 4.243 8.338 6.531a125.73 125.73 0 013.999 3.495c1.294 1.219 2.597 2.425 3.811 3.751z"/><path d="M253.562 293.863c7.603 2.855 15.019 6.097 22.408 9.396 3.678 1.684 7.364 3.352 11.008 5.106 3.663 1.714 7.292 3.499 10.919 5.287l.011.006a1.454 1.454 0 01.65 1.965 1.455 1.455 0 01-.512.561c-2.395 1.524-4.841 2.97-7.261 4.454-2.417 1.491-4.886 2.9-7.326 4.353-2.464 1.417-4.917 2.85-7.41 4.22a251.073 251.073 0 01-7.522 4.045 235.583 235.583 0 016.848-5.104c2.297-1.678 4.633-3.295 6.959-4.928 2.35-1.595 4.671-3.236 7.045-4.794 2.369-1.566 4.713-3.17 7.108-4.695l.148 2.532c-3.656-1.728-7.311-3.459-10.932-5.261-3.64-1.762-7.238-3.611-10.845-5.443-7.179-3.733-14.331-7.523-21.296-11.7z"/><path d="M259.485 316.225a43.286 43.286 0 007.385-3.625 14.862 14.862 0 005.273-5.289 12.248 12.248 0 001.143-7.223 42.536 42.536 0 00-1.898-7.986 18.606 18.606 0 014.214 7.54 12.252 12.252 0 01-.814 9.082 13.85 13.85 0 01-6.821 5.955 18.87 18.87 0 01-8.482 1.546zm22.493-8.645a33.197 33.197 0 01-1.054 6.067 56.019 56.019 0 01-1.85 5.764 55.149 55.149 0 01-2.451 5.535 32.874 32.874 0 01-3.255 5.228 32.848 32.848 0 011.05-6.068 55.073 55.073 0 011.854-5.763 56.173 56.173 0 012.455-5.533 33.298 33.298 0 013.251-5.23zM252.831 366.415s-10.729 11.01-15.852 8.341c-5.123-2.67-13.616-1.357-13.616-1.357l-2.089 14.152-21.829-1.108-15.541-9.602-.02-18.758s13.336-5.18 18.579-10.399c5.244-5.218 21.676-12.132 21.676-12.132l13.425 11.411s15.299 10.175 15.267 19.452z"/><path d="M223.363 373.399c-3.326-1.368-6.576-2.88-9.812-4.418-1.608-.787-3.229-1.55-4.822-2.366-1.597-.808-3.203-1.599-4.784-2.438l1.251-1.411c2.863 4.004 5.627 8.075 8.339 12.184 2.678 4.131 5.325 8.284 7.739 12.6-3.212-3.76-6.189-7.683-9.135-11.629a393.828 393.828 0 01-8.535-12.046l-.007-.011a.965.965 0 01.081-1.192.975.975 0 011.177-.208c1.58.841 3.135 1.729 4.698 2.601 1.567.864 3.106 1.781 4.659 2.673 3.085 1.822 6.156 3.67 9.151 5.661z"/><path d="M199.445 386.443c.428-3.939 1.045-7.837 1.726-11.722.67-3.887 1.449-7.751 2.255-11.609l1.523 1.04-5.147 3.346c-1.74 1.078-3.457 2.191-5.215 3.242a264.11 264.11 0 01-5.284 3.138c-1.786 1.009-3.566 2.026-5.399 2.964 1.583-1.317 3.219-2.553 4.849-3.797a264.278 264.278 0 014.964-3.623c1.658-1.203 3.357-2.343 5.033-3.518l5.102-3.415a.995.995 0 011.522 1.04c-.846 3.85-1.718 7.694-2.7 11.514-.971 3.822-2.006 7.631-3.229 11.4z"/><path d="M183.884 358.084c1.767.213 3.509.522 5.254.821 1.739.322 3.474.658 5.201 1.027a236.77 236.77 0 0110.307 2.426l-1.227.805c.282-1.612.531-3.23.839-4.838.305-1.608.597-3.219.943-4.821.666-3.208 1.393-6.407 2.307-9.575-.121 3.295-.431 6.561-.801 9.816-.172 1.63-.397 3.252-.61 4.875-.21 1.624-.479 3.238-.716 4.858a.98.98 0 01-1.112.829l-.099-.02-.015-.004a236.388 236.388 0 01-10.209-2.811 185.017 185.017 0 01-5.057-1.592c-1.675-.573-3.352-1.137-5.005-1.796z"/><path d="M252.831 366.415c-4.051-.012-8.096-.126-12.142-.228a845.548 845.548 0 01-12.128-.468c-8.079-.389-16.154-.866-24.222-1.433h-.008a.968.968 0 01-.719-1.526c1.645-2.314 3.341-4.592 5.012-6.887 1.666-2.299 3.386-4.56 5.076-6.842 1.718-2.262 3.413-4.54 5.169-6.775 1.751-2.239 3.474-4.498 5.27-6.704-1.494 2.421-3.061 4.791-4.6 7.18-1.533 2.393-3.128 4.743-4.7 7.109-1.599 2.346-3.17 4.713-4.793 7.043-1.619 2.332-3.212 4.683-4.857 6.997l-.727-1.526c8.076.456 16.145 1.01 24.208 1.661 4.031.339 8.061.682 12.088 1.079 4.026.414 8.053.816 12.073 1.32z"/><path d="M238.926 347.927a36.137 36.137 0 00-5.781 5.881 14.519 14.519 0 00-3.087 7.089 10.005 10.005 0 00.308 3.78c.329 1.27.839 2.487 1.515 3.612a35.618 35.618 0 005.098 6.467 20.257 20.257 0 01-6.407-5.617 12.22 12.22 0 01-2.502-8.45 13.967 13.967 0 013.885-7.882 20.508 20.508 0 016.971-4.88zm-17.584 16.476c-.434-1.987-.737-4-.909-6.027a82.465 82.465 0 01-.354-6.038 80.816 80.816 0 01.087-6.048c.083-2.033.299-4.057.648-6.061.436 1.987.741 4 .912 6.026a83.017 83.017 0 01.261 12.087 46.872 46.872 0 01-.645 6.061z"/></svg><svg viewBox="0 0 650 512" id="empty_search" xmlns="http://www.w3.org/2000/svg"><path d="M328.735 414.254c86.932 0 157.404-70.472 157.404-157.404S415.667 99.446 328.735 99.446 171.331 169.918 171.331 256.85s70.472 157.404 157.404 157.404z"/><path d="M534.388 226.177v-15.828a11.379 11.379 0 00-11.38-11.379h-40.167a11.378 11.378 0 01-11.38-11.38v-15.827a11.38 11.38 0 0111.38-11.38h1.268a11.378 11.378 0 008.047-3.333 11.388 11.388 0 003.333-8.047v-15.827a11.374 11.374 0 00-7.025-10.514 11.377 11.377 0 00-4.355-.866H192.275a11.379 11.379 0 00-11.379 11.38v15.827a11.381 11.381 0 0011.379 11.38 11.374 11.374 0 0110.514 7.025c.572 1.38.866 2.86.866 4.355v15.827a11.381 11.381 0 01-11.38 11.38h-44.006a11.377 11.377 0 00-11.38 11.379v15.828a11.379 11.379 0 0011.38 11.379h17.267a11.378 11.378 0 018.047 3.333 11.388 11.388 0 013.333 8.047v15.827a11.374 11.374 0 01-7.025 10.514c-1.381.572-2.86.866-4.355.866h-.041a11.392 11.392 0 00-8.047 3.333 11.388 11.388 0 00-3.333 8.047v15.827a11.38 11.38 0 0011.38 11.38h2.498a11.383 11.383 0 0111.38 11.38v15.827a11.382 11.382 0 01-11.38 11.38h-41.001a11.38 11.38 0 00-11.38 11.38v15.827a11.382 11.382 0 0011.38 11.38h363.227a11.382 11.382 0 0011.38-11.38v-15.827a11.378 11.378 0 00-11.38-11.38h-9.867a11.381 11.381 0 01-11.38-11.38V326.11a11.377 11.377 0 0111.38-11.38h23.265a11.381 11.381 0 0011.38-11.38v-15.827a11.382 11.382 0 00-11.38-11.38h-7.058a11.379 11.379 0 01-11.379-11.38v-15.827a11.383 11.383 0 0111.379-11.38h26.449a11.383 11.383 0 0011.38-11.379z"/><path d="M393.152 117.511h30.321M393.152 126.25h30.321M393.152 134.989h30.321M414.157 360.745h30.321M414.157 369.484h30.321M414.157 378.223h30.321M162.528 216.199h30.321M162.528 224.938h30.321M162.528 233.677h30.321" stroke-width="3" stroke-miterlimit="10" stroke-linecap="round"/><path d="M495.296 331.86l-117.48 11.819-117.481-11.819a2.003 2.003 0 01-1.799-1.99l-2.769-8.097 2.769-132.654 119.28 12 119.28-12 2.631 133.734-2.631 7.017a2.002 2.002 0 01-1.8 1.99z"/><path d="M499.727 322.853l-121.911 11.765-122.049-12.845 2.769-139.504a1.988 1.988 0 01.658-1.483 2.005 2.005 0 011.542-.507l117.08 11.779 117.079-11.779a2.007 2.007 0 011.542.507 2.005 2.005 0 01.659 1.483l2.631 140.584z"/><path d="M376.855 325.258l117.232-11.405-4.889-133.001-103.592 10.422-8.751 133.984z"/><path d="M376.855 176.458l102.48-11.52 4.747 149.888-107.227 10.432v-148.8z"/><path d="M382.615 175.498l-107.76-1.92 5.76 145.92 96.24 5.76 5.76-149.76z"/><path d="M377.815 168.538l102.48-11.52 7.2 150.24-109.68 10.08v-148.8z"/><path d="M377.815 312.364v4.974l109.68-10.08-.237-4.952-109.443 10.058z"/><path d="M377.815 168.538l-107.76-1.92 5.76 145.92 102 4.8v-148.8z"/><path d="M275.815 312.538l102 4.8v-5.124l-102-4.801v5.125z"/><path d="M282.6 263.853a54.057 54.057 0 0040.482 50.909l44.893 2.113V174.778s-33.92 2.408-69.092-7.647l-18.82-.335 2.537 97.057zm152.457 48.224a81.208 81.208 0 0033.944-70.118l-4.112-83.209-24.854 2.794c-22.719 11.502-50.502 18.712-50.502 18.712v136.005l45.524-4.184z"/><path d="M377.815 168.538s57.36-14.88 74.64-36l4.829 97.703a81.216 81.216 0 01-62.338 83.025l-17.131 4.072v-148.8z"/><path d="M393.064 168.538l-15.249 148.8s19.417-1.467 20.94-1.924c17.05-15.641 26.758-41.92 24.444-65.266l-9.293-93.779c-6.171 2.532-12.219 4.724-17.551 6.522-1.955 3.4-3.291 5.647-3.291 5.647z"/><path d="M377.815 168.538s16.56-27.84 18.48-36l11.655 117.61a74.054 74.054 0 01-30.135 67.19v-148.8zm0 0s-47.28 3.36-88.08-14.4l2.706 103.475a54.057 54.057 0 0043.761 51.663l41.613 8.062v-148.8z"/><path d="M377.815 168.538c.828 12.4 1.261 24.8 1.555 37.2.184 6.2.225 12.4.334 18.6l.11 18.6-.105 18.6c-.111 6.2-.147 12.4-.333 18.6-.293 12.4-.728 24.8-1.561 37.2-.832-12.4-1.267-24.8-1.56-37.2-.186-6.2-.222-12.4-.333-18.6l-.106-18.6.111-18.6c.108-6.2.149-12.4.334-18.6.294-12.4.727-24.8 1.554-37.2zm-69.848 20.955c5.043.427 9.989 1.034 14.933 1.614l14.773 1.77c4.918.578 9.832 1.062 14.765 1.544 4.938.47 9.874.761 14.929 1.192a70.36 70.36 0 01-15.028 1.952c-5.052.11-10.105-.129-15.124-.716a125.822 125.822 0 01-14.876-2.658 88.695 88.695 0 01-14.372-4.698zm0 21.355c5.043.427 9.989 1.034 14.933 1.615l14.773 1.769c4.918.579 9.832 1.062 14.765 1.545 4.938.47 9.874.761 14.929 1.191a70.297 70.297 0 01-15.028 1.952 109.487 109.487 0 01-15.124-.716 125.82 125.82 0 01-14.876-2.657 88.699 88.699 0 01-14.372-4.699zm0 21.356c5.043.426 9.989 1.034 14.933 1.614l14.773 1.77c4.918.578 9.832 1.062 14.765 1.544 4.938.47 9.874.761 14.929 1.192a70.36 70.36 0 01-15.028 1.952c-5.052.11-10.105-.129-15.124-.716a125.822 125.822 0 01-14.876-2.658 88.695 88.695 0 01-14.372-4.698zm0 21.355c5.043.427 9.989 1.034 14.933 1.615l14.773 1.769c4.918.579 9.832 1.062 14.765 1.545 4.938.47 9.874.761 14.929 1.191a70.297 70.297 0 01-15.028 1.952 109.487 109.487 0 01-15.124-.716 126.024 126.024 0 01-14.876-2.657 88.699 88.699 0 01-14.372-4.699zm0 21.356c5.043.426 9.989 1.033 14.933 1.614l14.773 1.769c4.918.579 9.832 1.063 14.765 1.545 4.938.47 9.874.761 14.929 1.192a70.36 70.36 0 01-15.028 1.952c-5.052.11-10.105-.129-15.124-.716a126.027 126.027 0 01-14.876-2.658 88.695 88.695 0 01-14.372-4.698z"/><path d="M449.178 192.351l-23.296 3.928a2.004 2.004 0 01-2.345-1.582l-.773-16.828a2.007 2.007 0 01.86-2.049 2 2 0 01.723-.296l23.595-4.849a1.993 1.993 0 011.5.306 2 2 0 01.845 1.276l.474 17.749a2 2 0 01-1.583 2.345zm-13.225 41.46l-23.297 3.929a1.988 1.988 0 01-1.5-.306 1.997 1.997 0 01-.844-1.276l-.773-16.828a1.999 1.999 0 011.582-2.345l23.596-4.849a2.007 2.007 0 011.5.305 2 2 0 01.844 1.277l.474 17.749a2.007 2.007 0 01-.305 1.5 2.014 2.014 0 01-1.277.844z"/><path d="M411.121 216.985a1.998 1.998 0 00-1.582 2.344l.773 16.829a2.002 2.002 0 002.344 1.582l9.16-1.545-2.079-20.981-8.616 1.771z"/><path d="M445.071 275.272l-23.297 3.929a2 2 0 01-2.344-1.582l-.773-16.829a1.988 1.988 0 01.306-1.5 2.01 2.01 0 011.277-.844l23.595-4.85a2.013 2.013 0 011.5.306 1.997 1.997 0 01.845 1.277l.473 17.749a2.007 2.007 0 01-.305 1.499 2.004 2.004 0 01-1.277.845z"/><path d="M420.24 258.446a2.002 2.002 0 00-1.583 2.344l.773 16.829a1.987 1.987 0 00.995 1.358 81.202 81.202 0 003.101-21.207l-3.286.676z"/><path d="M312.04 398.443c7.158 0 12.96-5.802 12.96-12.96 0-7.158-5.802-12.96-12.96-12.96-7.158 0-12.96 5.802-12.96 12.96 0 7.158 5.802 12.96 12.96 12.96zM294.76 361.243a6.72 6.72 0 100-13.44 6.72 6.72 0 000 13.44zM338.718 370.843a9.6 9.6 0 009.6-9.6 9.6 9.6 0 00-9.6-9.6 9.6 9.6 0 00-9.6 9.6 9.6 9.6 0 009.6 9.6zM174.129 326.296c8.516 0 15.42-6.904 15.42-15.42s-6.904-15.42-15.42-15.42-15.42 6.904-15.42 15.42 6.904 15.42 15.42 15.42zM144.663 307.925a8.032 8.032 0 100-16.064 8.032 8.032 0 000 16.064zM152.041 277.223a4.633 4.633 0 100-9.265 4.633 4.633 0 000 9.265zM177.688 286.975c6.134 0 11.107-4.973 11.107-11.107 0-6.134-4.973-11.107-11.107-11.107-6.134 0-11.107 4.973-11.107 11.107 0 6.134 4.973 11.107 11.107 11.107zM271.185 152.639c8.516 0 15.42-6.904 15.42-15.42s-6.904-15.42-15.42-15.42-15.42 6.904-15.42 15.42 6.904 15.42 15.42 15.42zM271.811 113.812a8.032 8.032 0 100-16.064 8.032 8.032 0 000 16.064zM325.309 117.425a6.953 6.953 0 10-.001-13.905 6.953 6.953 0 00.001 13.905zM300.018 108.351a4.633 4.633 0 100-9.267 4.633 4.633 0 000 9.267zM305.402 140.114c6.134 0 11.107-4.973 11.107-11.107 0-6.134-4.973-11.107-11.107-11.107-6.134 0-11.107 4.973-11.107 11.107 0 6.134 4.973 11.107 11.107 11.107z"/><path d="M253.728 305.162l-15.791-9.007-9.008 15.791 15.792 9.008 9.007-15.792z"/><path d="M314.011 301.093a62.82 62.82 0 00-29.095-112.365 62.82 62.82 0 00-71.443 65.783 62.824 62.824 0 0053.989 58.637 62.826 62.826 0 0046.549-12.055zm-78.205-19.706a50.577 50.577 0 01-3.208-56.112 50.575 50.575 0 0150.614-24.435 50.584 50.584 0 0141.943 37.412 50.585 50.585 0 01-18.517 53.067 50.583 50.583 0 01-70.832-9.932z"/><path opacity=".76" d="M276.189 301.515c27.934 0 50.58-22.645 50.58-50.58s-22.646-50.58-50.58-50.58c-27.935 0-50.58 22.645-50.58 50.58s22.645 50.58 50.58 50.58z"/><path d="M312.301 253.155a36.174 36.174 0 01-28.256 33.097 36.184 36.184 0 01-39.622-17.999" stroke-width="10" stroke-miterlimit="10"/><path d="M249.495 323.625L224.2 309.198a2 2 0 00-2.728.746l-36.997 64.866a2 2 0 00.746 2.728l25.295 14.427a2 2 0 002.728-.746l36.997-64.866a2 2 0 00-.746-2.728z"/><path d="M213.243 391.219l36.998-64.866a2.005 2.005 0 00-.157-2.217 1.996 1.996 0 00-.59-.511l-6.291-3.588a2 2 0 01.746 2.728l-36.997 64.866a2.005 2.005 0 01-1.988.993 2.005 2.005 0 01-.74-.247l6.291 3.588a1.992 1.992 0 001.519.192 1.993 1.993 0 001.209-.938z"/><path d="M190.558 378.28l36.997-64.866a2 2 0 012.728-.747l6.988 3.986-13.071-7.455a2 2 0 00-2.729.746l-36.997 64.866a2 2 0 00.746 2.728l6.084 3.47a1.994 1.994 0 01-.938-1.21 1.983 1.983 0 01.192-1.518z"/><path d="M198.292 384.993l12.223 6.972h.001l-12.224-6.972z"/><path d="M185.093 371.319l30.84 17.59a2 2 0 01.747 2.728l-2.944 5.162a13.173 13.173 0 01-17.972 4.917l-11.426-6.518a13.18 13.18 0 01-6.544-13.095c.217-1.716.77-3.373 1.627-4.876l2.944-5.161a2 2 0 012.728-.747z"/><path d="M185.402 380.683l2.943-5.161a2 2 0 012.729-.747l25.176 14.36a2.026 2.026 0 00-.317-.226l-30.84-17.59a2 2 0 00-2.728.747l-2.944 5.161a13.176 13.176 0 004.917 17.971l5.329 3.04a13.165 13.165 0 01-4.265-17.555z"/><path d="M213.735 396.799l2.944-5.162a1.998 1.998 0 00-.746-2.728l-6.318-3.604a1.998 1.998 0 01.741 2.725l-2.944 5.161a13.176 13.176 0 01-17.971 4.917l-5.114-2.916.011.006 11.426 6.517a13.166 13.166 0 0010.004 1.264 13.17 13.17 0 007.967-6.18z"/></svg><svg viewBox="0 0 95 159" id="logo" xmlns="http://www.w3.org/2000/svg"><path d="M18.433 103.215c.567-3.686 3.12-6.239 6.522-8.507 3.687-2.269 8.224-2.552 12.478-3.12.85 0 1.134.284 1.418.284 1.701 1.985 5.955.567 7.09-1.701.283-.568.283-1.135-.284-1.702-.567-.85-2.269-.567-3.12-.85-1.418-.284-2.552-.284-3.686.566-.567.568-1.135 1.135-1.135 1.702-2.268.567-4.537 1.134-6.806 1.418 3.12-3.12 4.538-9.075.851-11.627-.283-.284-1.134 0-1.134.567-.284 2.836-3.403 4.537-3.97 7.09-.284 1.418-.851 3.97 0 5.388-1.135.567-2.269 1.134-3.687 1.701a6.696 6.696 0 00-2.552 2.269c-.85.85-1.134.284-1.134-.284.283-1.985.283-3.686.567-5.671.283-5.672.283-11.627.283-17.299 0-.85.851-4.82 3.687-8.507 1.418-1.985 1.418-3.687 1.418-6.24 0-.85-.85-1.7-.85-.566 0 3.12-1.419 5.388-2.837 7.94-.283.567-1.134.567-1.134-.284 0-6.238-.284-12.194.284-18.432.283-1.986 2.835-19.284 7.656-15.314 2.269 1.985 2.552 7.09 2.269 9.642 0 2.552-.567 5.104-1.134 7.373-.284 1.134-.568.85-.851.284-.567-1.418-1.702-2.269-3.97-1.985-.851 0-1.135.85 0 .85 3.686 0 3.97 5.388 3.97 8.791-.284 6.24.85 12.478.567 18.717 0 1.985 1.701 2.269 1.701.283 0-1.418 0-3.119.284-4.537 2.836 1.134 5.388-.85 7.09-3.403 1.418-2.269 2.552-6.239.567-8.507-.567-.567-1.135 0-1.135.567-.283 2.552-3.119 3.97-5.104 5.104l-.85.851v-8.791c1.417.567 2.835.284 4.253-.284 2.836-1.701 2.836-5.104 2.552-7.94 0-.567-.85-1.134-1.134-.567-1.135 1.134-3.12 1.985-4.821 3.12 0-.851.283-1.702.283-2.27.851-5.671 2.27-13.895-2.268-18.432-2.552-2.836-5.672-1.135-7.657 1.134.284-1.418.284-2.836-.283-4.254-.568-1.985-2.553-5.388-4.538-6.238-.567-.284-1.134 0-1.134.567 0 1.418.567 3.12.567 4.537 0 1.702-.567 3.12-.567 4.821-.284 2.836 1.418 5.388 2.836 7.373-1.418 5.672-1.418 11.91-1.702 17.582v7.09c-.283-.567-.85-.851-1.134-1.135-.567-.567-1.418-.85-1.985-1.417-.567-.568-.567-1.135-.284-1.702 2.553-4.82 1.135-10.209 0-15.313 0-.284 0-1.135.284-1.418 1.701-3.12-.85-6.24-3.97-7.09-.284 0-.851 0-.851.567-.284 1.702-.567 3.12.284 4.821.567 1.135 1.701 2.269 2.835 2.552 1.135 4.821 2.836 10.21.568 14.747-.568 1.134-1.135.567-1.418.283-1.135-1.134-1.986-2.268-2.269-3.97 0-.283.284-1.134.284-1.418.85-2.836-2.27-4.82-4.254-5.955-.567-.567-1.418.284-1.135 1.134.284.851 0 1.702 0 2.269 0 .567 0 1.418.284 1.985.567 1.134 1.702 1.985 3.12 2.269.567 2.552 2.268 4.82 4.537 6.522 1.418 1.134 3.403 1.985 4.537 3.687.85 1.418.85 3.686.85 4.537v11.343c-.283 5.388-.283 10.776-.85 16.165-.284 1.417-.567 1.417-.85.567-.851-2.269-2.27-4.254-3.97-6.24 1.984-.85 3.119-2.551 3.119-4.82-.284-2.836-3.12-4.254-5.389-5.105-.567-.283-1.134 0-1.134.568 0 1.985.284 3.97.284 5.955v.85c-1.135-.85-2.269-1.417-3.687-2.268.284-1.134 0-2.269-.567-3.12-1.134-1.701-2.836-1.134-4.254-2.268C.567 80.812 0 80.812 0 81.663c0 2.836 1.701 7.94 5.388 6.239h.284c2.835 1.134 5.104 3.12 7.09 5.104-2.553-.283-5.672.567-7.941 0-.567 0-1.134.284-.85.851 1.417 4.537 7.656 5.955 11.059 2.836 1.134 2.269 1.985 4.821 2.269 7.657 0 1.134-.284 2.268-.284 3.686a34.562 34.562 0 000 7.657c0 .851-.284.851-.567.283-1.135-1.417-2.553-2.835-4.538-3.403 1.135-1.134.851-2.835.284-4.253-.85-2.836-3.97-3.97-5.955-5.955-.85-.568-1.702.283-1.135 1.134 1.702 1.701 1.418 6.239 2.836 8.507-.567 0-1.134.284-1.985.284-.567 0-.567-.284-.85-.567-.851-.567-1.986-.851-3.12-.567-1.134.283-1.701 1.701-1.134 2.835.567 1.985 4.253 2.269 5.104.284 0-.284.284-.567.567-.851.568 0 1.135-.283 1.702-.283-.567.567-.85 1.134-1.418 1.701-.567 1.134-1.134 2.269-1.702 3.12-.567 1.134-1.701 1.417-2.552 2.268-.283.284 0 .851.284 1.135 2.268 1.417 5.388.567 7.373-.851 2.269-1.702 1.985-4.254 1.418-6.523 1.701.851 3.403 2.269 4.537 4.254.284.567 1.134 2.836 1.134 3.403.568 2.836 1.135 5.672 1.986 8.508 2.552 7.656 4.82 15.029 4.253 23.253 0 1.985 3.97 1.702 4.254 0 .284-4.537-.85-9.358-2.269-13.895-.283-.567-.283-2.552.284-3.97.85-1.985 2.552-3.687 3.97-5.105.567 5.388 8.508 9.358 12.761 5.388.284-.283.284-1.134-.283-1.134-3.403-.567-5.956-5.388-9.358-6.239.283-.284.567-.567 1.134-.567 1.985-.851 4.254-1.418 6.522-1.418.567 1.701 2.269 2.836 4.254 2.836 1.702 0 3.403-1.702 2.836-3.403-.851-2.836-6.239-3.97-7.09-.284-1.701 0-3.403.284-5.104.567.283-.85.567-1.701.567-2.552 0-1.985-.567-4.537-2.552-5.671-.568-.284-.851 0-1.135.567-1.134 2.836-5.388 7.089-2.268 9.925-.567.567-1.135.851-1.702 1.418a21.399 21.399 0 00-3.12 3.97c-.85 1.418-1.417 1.134-1.417.567v-.567c-1.418-4.821-3.12-9.642-3.687-14.463 0-.85 0-2.268.567-3.403.851-1.134 2.27-1.985 3.12-2.835 1.701-1.135 3.403-1.985 5.104-2.836 2.269 5.671 11.91 8.224 15.597 2.552.284-.567 0-1.134-.567-1.134-2.836-.284-4.537-2.553-7.09-3.687-.283-.283-.567-.283-1.134-.283 1.985-.851 3.97-1.986 5.672-3.971 1.134.284 2.269.284 3.403-.283.85-.567 1.702-1.418 1.985-2.552.567-1.135.85-4.821-1.701-4.254-1.702.284-5.956 3.97-4.821 5.955-1.985 1.985-4.538 3.403-7.09 4.254.567-.851.85-1.702.85-2.552.284-2.836-1.984-4.821-3.119-6.806-.283-.567-1.418-.284-1.418.283 0 3.403-3.119 7.657-.85 10.776-1.418.567-2.552 1.135-3.97 1.985-1.135.568-2.269 1.702-3.687 2.553-1.134.85-1.134 0-1.134-.284-1.702-2.836-1.418-6.239-1.418-9.642zm22.12-14.179c.85-.283 1.984.284 2.835.284 1.134 0 1.702 0 .85.85-.85.851-3.97 2.27-4.253.284 0-.283-.283-.85.284-1.134 0-.284.283-.284.283-.284zM28.641 86.2c.85-1.701 2.268-2.835 3.12-4.537 2.551 2.836-.852 9.075-3.971 10.209-1.134-1.418.284-4.537.85-5.672zm9.074-24.388c.284 1.702-.567 3.687-1.134 4.821-.85 2.269-3.687 4.254-5.955 2.836 0-.284 0-1.134 1.134-2.552 1.418-1.702 4.537-2.836 5.955-5.105zM33.18 52.17c.85-.567 1.985-1.134 2.836-1.701.283 1.701 0 3.12-1.134 4.537-1.135 1.418-2.836 1.418-3.97.851 0-.85 0-2.269 2.268-3.687zM10.21 36.857c1.701.85 3.12 2.552 2.269 4.537-.284.284-.568.284-.568.284-1.701-.85-1.701-3.12-1.701-4.82zm-4.82 13.328v-1.134c1.133.85 2.268 1.985 1.984 3.403 0 .567-.567.284-.567.284-.85-.284-1.418-1.702-1.418-2.553zm5.103 39.702c-.567-1.134-.567-2.269-.567-3.687 0-1.134-.283-2.268-.283-3.403.85.568 1.985 1.135 2.552 1.702 1.701 2.269.284 4.82-1.702 5.388zM.284 82.797c.567.284.85.284 1.417.568 1.135.283 1.986 1.985 1.418 3.119-1.701.85-2.552-1.702-2.835-3.687zm3.97 11.627c2.836 0 6.806-.85 8.507.851-2.268 2.552-6.806 1.701-8.507-.85zm3.403 12.478c1.134.851 3.12 3.97 1.134 5.104-1.985-.283-2.552-3.97-3.12-6.522.568.283 1.135.851 1.986 1.418zm-7.09 6.806c-.283-.284.284-.851.567-.851.567 0 1.135 0 1.702.284.283.283.283.567.283.567-.567.851-1.985.851-2.552 0zm7.94 5.955c-1.134 1.134-3.403 1.985-5.388 1.418.568-.284 1.135-.567 1.418-1.134.567-.851 1.135-1.702 1.418-2.553.567-1.134 1.418-2.835 2.836-3.119.567 1.701 1.134 3.687-.284 5.388zm30.344 15.881c-3.687 1.985-9.075-1.702-9.075-5.956 2.269-.567 4.537 2.269 5.955 3.403.851 1.135 1.985 1.985 3.12 2.553zm5.671-9.926c.568.851-.283 1.702-1.134 1.985-1.134.284-2.552-.567-2.836-1.701v-.284c.284-1.985 2.836-1.134 3.97 0zm-12.477-5.955c.85.851 1.134 2.552 1.134 3.687 0 1.985-1.134 3.119-2.552 3.97-.284 0-.284.283-.567.283 0 0 0-.283-.284-.283-1.985-1.985.85-5.388 2.269-7.657zm11.343-20.985c.284-.284.284-.284.567 0 .284.567 0 1.418-.283 1.985-.567 1.702-1.985 2.269-3.687 1.702-.85-.568 2.836-3.403 3.403-3.687zM30.627 109.17c3.12-.85 5.671 1.135 7.94 3.12.567.567 1.418.851 1.985.851-3.403 3.119-10.492.567-11.91-3.403.283 0 .85-.284 1.985-.568zm-1.702-9.074c.567.851 1.418 1.701 1.702 2.836.85 2.268-.567 4.537-2.552 5.671-1.702-2.268 0-5.671.85-8.507zM17.582 29.2c.284-1.134.284-1.985.284-3.12 0-.85 0-1.984-.284-2.835.85.85 1.418 1.985 1.985 2.836 1.418 2.552 1.134 5.388 0 7.94 0 .284-.85 1.702-1.134.851-.85-1.702-1.134-3.403-.85-5.672z"/><path d="M94.433 105.484c-3.12 1.985-7.657 2.552-10.493 4.821-.567-4.538-2.268-9.075-1.985-13.896v-.567c1.702.567 3.97 0 5.388-1.134 2.836-2.269 3.403-6.523 2.836-9.642 0-.567-1.134-.567-1.418-.284-1.701 2.836-5.388 4.254-7.373 6.523-.567-1.702-1.134-3.403-1.985-5.105-.284-.567-1.134-1.985-.85-3.97 0-.85.566-1.985.85-2.552.567-1.418 1.418-2.552 2.552-3.403 0 1.134 0 2.552.851 3.403 1.134 1.134 2.552 1.701 3.687 2.552.283.284 1.134 0 1.134-.567.567-3.12-.284-5.105-2.269-7.09.851 0 1.702 0 2.552.284-.283.85-.283 1.985.284 2.836.85 1.418 3.12 1.134 4.254.283.85-.85 1.134-2.268.85-3.403-.567-1.417-1.701-1.701-2.835-1.701-.851 0-1.418.284-1.702.567-.85-.283-1.701-.567-2.268-.567 1.985-2.269 1.701-5.388-.284-8.224-.284-.567-1.134-.567-1.418.284-.85 2.835-4.254 5.955-2.552 9.358-1.135.85-2.269 1.701-3.12 2.836-.85.85-1.418 2.268-1.701 3.686-.284 1.135-.85 1.135-1.134.567-.284-.567-1.986-1.985-2.553-3.686-.85-2.269-.85-4.821-.567-7.373 2.552 1.134 5.388 0 7.09-2.269 2.268-2.836 2.552-6.806.85-9.925-.283-.567-.85-.567-1.417 0-1.135 1.418-1.418 2.836-3.12 3.97l-2.552 1.701-.284.284v-1.418c0-4.82 0-10.493-2.268-15.03-.284-.567-1.135-3.12-.567-5.388.85-3.12 3.97-4.537 6.522-3.12-.567 1.986.567 3.97 2.269 5.105 1.134.85 3.403 1.418 3.97-.283.567-1.702-.284-4.254-1.702-5.389-.85-.85-2.268-1.134-3.403-.567-4.254-2.552-7.94.284-9.358 4.254-.567 1.702-1.418 1.134-1.985.567-1.134-.85-2.836-1.134-4.537-1.418-1.985-.283-3.687.284-4.821 1.135-.851.567-.851-.284-.851-.568v-8.79c7.09 1.985 10.209-7.374 7.94-13.045-.283-.568-1.134-.851-1.418-.284-1.417 2.836-3.403 4.821-5.671 7.09-.284.283-.567.85-.851 1.134v-9.642c0-.567 0-1.418 1.702-1.701 5.104-.851 8.223-7.657 5.388-12.478-.284-.567-1.135-.567-1.418 0-1.702 3.403-5.956 5.105-7.657 8.224-.85 1.418-.85 3.687-.85 4.254 0 6.522.283 13.328.283 19.85-.284-.567-.567-.85-1.135-1.417-1.701-1.986-4.537-1.135-5.104 1.134-.284.85.567 1.134.85.283.568-2.268 3.12-.567 3.97.284.568.85.852 1.985 1.135 2.836.284 1.418.284 2.836.284 3.97v12.761c0 1.985 1.985 1.985 1.985 0v-7.94c0-.567.283-1.985.85-2.552 2.27-2.269 6.807-1.985 9.075.283 2.552 2.552 3.12 7.657 3.403 11.343-1.701-2.552-4.254-3.686-5.104-6.806-.284-.85-1.135-.567-1.418 0-1.134 3.12-1.702 6.24-.284 9.075 1.135 2.552 4.538 3.12 6.806 2.836-.283 3.97-.85 8.224-.567 12.194.284 1.985-.85 1.701-1.701 1.418-3.403-1.418-7.657-2.552-10.777-2.269-1.985 0-3.119-.283-3.686-.85-.567-.568-.85-1.418-1.418-1.986-1.134-2.268-.85-3.686 1.134-5.104.851-.567.284-1.418-.567-.85-2.552 1.417-3.403 3.119-2.269 5.954.284 1.135.851 1.986 1.702 2.836.283.284.567 1.135.283 1.418-.567.567-1.134.284-1.417 0-1.135-.567-2.269-.85-3.687-.567-2.552.284-5.104 2.552-7.657 1.418-.567-.284-1.134.283-1.134.85.567 2.837 2.836 4.538 5.672 5.105 2.836.284 4.537-.85 6.238-2.552v1.418c.284 3.12 2.836 5.388 5.389 7.09 1.985 1.417 1.985 2.552 1.985 3.686-1.986-2.269-7.09-.284-9.642-.567-.567 0-.851.567-.851.85 1.418 4.821 5.955 4.821 9.642 2.836-.85 1.418-2.269 2.269-3.97 2.269-.851 0-.851 1.418 0 1.418h.567l-.85 2.552v2.836c.566 1.985 2.268 3.403 1.7 5.672 0 .85.851 1.417 1.418.567 1.986-3.687 5.389-10.209.568-13.045 1.701-1.418 2.552-3.687 2.552-5.672 0-.283 0-.85.85-.567 1.135.567 2.27 1.418 3.12 2.269 1.702 1.418 1.134 3.97.284 5.671-1.135 2.553-2.553 4.821-2.269 7.941 0 1.985 1.985 1.985 1.985 0 0-4.538 6.239-9.358 3.687-13.896-1.985-3.686-6.806-5.388-10.21-7.656-2.268-1.418-4.82-4.821-2.268-7.374.85-.85 2.269-1.134 3.687-1.134.85 0 .567.567.567 1.134 0 .284-.284.284-.284.568-.85 3.119 2.552 5.388 5.388 4.537.851-.284.851-1.135-.283-.85-1.985.566-4.254-1.419-3.687-3.687 0-.284.284-.568.284-.568.283-.283.85-.567 1.701-.283.567 0 .85.283 1.135.283 6.238 1.418 9.925 4.821 13.328 9.926 1.134 1.985 1.701 3.97 1.701 5.955-.567-.85-.85-1.418-1.701-2.269-1.135-1.134-2.552-1.701-3.687-2.552-.85-.567-1.701-1.985-2.836-1.985-.283 0-.567.284-.85.567-1.135 5.388 2.835 14.746 9.358 13.612.283 1.418.85 3.12 1.134 4.537 1.702 7.374-.85 13.329-5.104 19.568-1.135 1.701-2.269 3.403-3.12 5.104-.85 1.134-1.134.567-1.134-.284 0-2.552 0-4.82-.85-7.089 7.372-.567 6.805-11.911 2.552-16.164-.568-.567-1.135 0-1.135.567 0 3.686-1.701 6.522-3.12 9.925-.283.567-.566 1.135-.566 1.702-1.418-1.135-3.12-1.702-5.672-.851-.567-1.134-1.701-1.701-3.12-1.701-1.417.283-2.552 1.417-2.268 3.119.283 1.418 1.701 1.985 3.12 1.985 1.134 0 1.984-.851 2.268-1.985 2.269-.567 3.687-.284 4.82.851 1.419 1.418 1.702 3.403 1.986 3.97.284.851.284 1.701.284 2.836-.851-1.418-1.986-2.836-3.403-3.97-2.553-1.702-6.24-1.135-9.075-1.135-.85 0-.85.851-.284 1.418 1.985 1.418 3.12 3.403 5.388 4.537 1.986 1.135 4.538 0 6.523 1.418 1.134.851 1.134 2.269 1.134 3.12 0 1.134-.283 2.552-.567 3.403 0 .567-.567 3.119-.85 3.97 0 .567-.284 1.134-.284 1.701-.284 2.836-.284 5.956-.284 8.791 0 2.269 0 4.821 1.134 6.806.851 1.702 3.403.284 2.553-1.418-1.418-2.552-.851-5.671-.568-8.507 0-4.537.284-9.075 2.27-13.045 3.402-6.522 8.507-11.343 10.492-18.433 0-.283.283-.567.283-.85 2.269 1.134 5.388.283 7.657-.851 3.12-1.702 3.97-5.388 4.254-8.508 1.701-.283 1.134-.567.567-.283zm-2.836-28.075c-.567.567-1.701.567-1.985-.283-.284-.568 0-1.135.284-1.702 0-.283.283-.567.567-.567 1.134-.284 1.985 1.418 1.134 2.552zm-5.104 3.12c-.568-.284-1.135-.567-1.702-1.135-.85-.85-1.134-1.985-1.134-3.12 0-.283 0-1.133 1.134-.283 1.134 1.418 1.702 2.836 1.702 4.538zM85.358 67.2c1.135 2.269 1.135 4.821-1.134 6.24-1.135.566-1.135-.284-1.135-.568 0-1.702 1.418-3.97 2.27-5.672zm-5.104-27.224c.567 0 1.134.568 1.418.851.567.85 1.134 2.552.85 3.403-.283.567-1.701-.567-1.985-.567-.85-.567-1.418-1.985-1.418-3.12 0-.567.851-.567 1.135-.567zm-19.567-12.76c1.418-1.135 2.552-2.553 3.403-4.255.85 4.821-1.418 11.627-7.09 9.359v-.284c.567-1.985 1.985-3.403 3.687-4.82zm2.835-20.419c1.418 4.538-2.268 10.493-7.373 8.791 0-3.686 4.821-5.955 7.373-8.79zm13.896 57.284c1.701-.85 1.985-1.985 2.836-3.403.85 2.269.283 4.537-.851 6.522-1.134 2.269-3.97 3.403-6.239 1.985.284-.567.85-3.403 4.254-5.104zM64.94 59.827c-1.134-1.701-.85-3.97-.283-5.955.567 1.134 1.701 2.269 2.836 3.403 1.417 1.418 2.552 3.12 3.119 4.82-2.269 0-4.254-.283-5.672-2.268zm-23.537 19c1.134.284 2.269 0 3.403-.283 2.552-.851 4.82-2.27 7.09-.284-1.418 1.134-2.553 2.552-4.254 3.12-2.552.85-5.105-.568-6.239-2.553zm8.791 14.463c2.552-.284 6.522-1.418 7.657.567-2.553 1.701-6.24 2.269-7.657-.567zM57 108.036c-.284-.567-.567-1.418-.85-1.985-.852-1.985-1.702-5.388.566-7.09 3.403 1.702 1.702 5.956.284 9.075zm3.12 12.761c-.568 0-1.135-.283-1.418-.85-.568-1.135 1.701-1.986 2.552-.851 0 .567 0 1.134-.284 1.418-.283.283-.283.283-.85.283zm11.91-5.955c.567-1.418 1.134-3.119 1.134-4.537 2.269 4.253 2.269 11.91-3.12 12.194 0-.284-.566-1.985.568-4.821.284-1.134.85-1.985 1.418-2.836zm-13.045 9.642c2.269 0 4.537-.284 6.522.851 1.418.567 2.27 1.985 2.836 3.403-1.134-.284-2.268-.568-3.403-.568-2.552 0-4.253-1.985-5.955-3.686zm29.776-37.433c0 1.985-.283 3.687-1.418 5.388-.85 1.702-3.97 3.12-5.671 1.702 0-.284 0-1.418 1.985-3.403 1.985-1.418 3.686-2.27 5.104-3.687zm-9.642 13.612c-5.104 1.134-7.94-6.522-7.94-10.493.284.284.567.568.85.568.852.567 1.986 1.134 3.12 1.985 1.418.85 2.269 1.985 2.836 3.403.567.85 1.134 3.97 1.134 4.537zm12.762 11.627c-1.702 1.985-5.672 3.403-7.94 1.701 0-.567.283-2.268 2.835-3.97 1.985-1.418 5.105-1.701 7.373-2.836-.283 1.985-.85 3.687-2.268 5.105z"/><path d="M25.81 21.544c1.134-1.418 2.268-2.836 3.119-4.254.567-.85.85-.284.85.284 0 1.134 0 2.268-.283 3.402-.284 1.986 1.134 2.553 1.418.851.567-2.269.567-3.97.567-5.955 0-.567 0-1.701.567-.85l.85.85c1.135 1.418 2.27 3.12 3.687 4.537.284.284.851.284 1.135-.283 1.701-2.553 1.985-5.956 0-8.224-1.418-1.418-3.12-2.269-4.821-1.702 1.701-2.552 4.537-4.82 7.09-1.701.85.85 1.134 3.12.85 3.686v3.12c.284 3.686.567 7.657.85 11.343-1.133-1.701-2.551-2.552-4.253-3.686-.85-.568-1.134.283-.567.567 2.552 1.418 4.254 4.253 4.82 7.09v6.805l-.85-1.701c-1.418-2.269-4.82-1.985-5.672-4.821-.283-.85-1.418-.567-1.418.283-.283 4.821 0 15.314 7.374 13.612h.283c-.567 7.657-.567 15.03-.283 22.687 0 1.985 1.985 1.701 1.985 0v-7.657c8.224 3.97 12.76-13.612 5.955-13.895-.284 0-.567.283-.85.567-.568 3.403-2.837 5.388-4.822 7.94.568-9.075 1.985-18.15 1.418-27.507 0-1.135-.283-2.269-.283-3.687 2.552.85 4.82-1.418 6.238-3.687 1.702-2.835 1.418-6.805-.567-9.074-.283-.567-1.134-.284-1.134.284-.567 3.119-3.403 4.537-5.105 6.805v-.283c0-2.836-.283-5.955.851-8.791.851-2.269 2.836-5.388 5.105-6.239 3.12-1.134 4.82.567 5.388 2.836.283 1.985 2.552 2.552 1.985.567-1.134-4.537-3.97-7.09-8.791-4.82-2.836 1.417-5.105 3.97-6.239 6.521-1.985-2.835-5.104-3.97-8.508-1.985-2.835 1.702-3.686 3.687-3.97 6.24-1.701-.568-3.686 0-5.104 1.7-2.269 2.27-1.985 5.672 0 8.225.284.283.85.567 1.134 0zm15.313 21.835c-4.821 1.135-5.388-5.388-5.388-9.641.567.567 1.418 1.134 2.552 1.701 3.12 1.702 3.403 5.105 3.403 8.224-.284-.284-.567-.284-.567-.284zm5.104 9.926c1.702-1.985 3.12-3.687 3.687-5.955.567.567 1.134 1.701 1.134 2.268.567 1.702 0 3.403-.85 5.105-1.135 2.552-3.97 5.104-6.807 3.403V56.99c.851-1.417 2.269-2.835 2.836-3.686zm.85-36.866c1.135-1.134 2.553-2.268 3.12-3.686.851 1.701.567 3.97-.283 5.671-.851 1.985-3.12 4.538-5.388 3.12 0-.568.567-2.836 2.552-5.105zm-9.924-2.552c.85 1.701.85 3.403 0 4.82-.851-1.134-1.702-2.268-2.836-3.402-.851-.85-1.702-1.702-2.269-2.552 1.701-1.702 3.97-.568 5.105 1.134zM25.242 15.02c.85-1.701 2.836-2.836 4.537-1.701 0 .283-.567 1.701-1.701 3.12-1.134 1.133-1.702 2.268-2.836 3.402-.567-1.418-.85-3.12 0-4.82z"/></svg><svg viewBox="0 0 20 14" id="message-before" xmlns="http://www.w3.org/2000/svg"><path d="M1 13L7.167.5H19.5L1 13z" stroke-linejoin="round"/><path d="M19.5 0H7.886l-.493 1h10.519L19.5 0z"/></svg><svg viewBox="0 0 24 14" id="message-before2" xmlns="http://www.w3.org/2000/svg"><path d="M23 13L15.5.5H.5L23 13z" stroke-linejoin="round"/><path d="M.5 0h14.125l.6 1H2.431L.5 0z"/></svg><svg viewBox="0 0 13 13" id="search" xmlns="http://www.w3.org/2000/svg"><path fill-rule="evenodd" clip-rule="evenodd" d="M9.144 8.379l3.697 3.696a.541.541 0 11-.766.766L8.378 9.144a5.12 5.12 0 01-3.232 1.148A5.152 5.152 0 010 5.146 5.152 5.152 0 015.146 0a5.152 5.152 0 015.145 5.146 5.12 5.12 0 01-1.147 3.233zm-8.06-3.233a4.067 4.067 0 004.062 4.062 4.067 4.067 0 004.062-4.062 4.067 4.067 0 00-4.062-4.063 4.067 4.067 0 00-4.063 4.063z"/></svg><svg viewBox="0 0 24 24" id="settings" xmlns="http://www.w3.org/2000/svg"><path fill-rule="evenodd" clip-rule="evenodd" d="M8.571.857c0-.473.384-.857.858-.857h5.142c.474 0 .858.384.858.857V2.3c.344.121.68.26 1.005.417l1.02-1.02a.857.857 0 011.213 0l3.636 3.636a.857.857 0 010 1.212l-1.02 1.02c.156.327.296.662.417 1.006h1.443c.473 0 .857.384.857.858v5.142a.857.857 0 01-.857.858H21.7c-.121.344-.26.68-.417 1.005l1.02 1.02a.856.856 0 010 1.213l-3.636 3.636a.857.857 0 01-1.212 0l-1.02-1.02c-.327.156-.662.296-1.006.417v1.443a.857.857 0 01-.858.857H9.43a.857.857 0 01-.858-.857V21.7c-.344-.121-.68-.26-1.005-.417l-1.02 1.02a.857.857 0 01-1.213 0l-3.637-3.636a.857.857 0 010-1.212l1.02-1.02a10.266 10.266 0 01-.416-1.006H.857A.857.857 0 010 14.57V9.43c0-.474.384-.858.857-.858H2.3c.121-.344.26-.68.417-1.005l-1.02-1.02a.857.857 0 010-1.213l3.636-3.637a.857.857 0 011.212 0l1.02 1.02A10.27 10.27 0 018.572 2.3V.857zM6 12a6 6 0 1112 0 6 6 0 01-12 0z"/></svg><svg viewBox="0 0 28 28" id="smiles" xmlns="http://www.w3.org/2000/svg"><path d="M14 0C6.279 0 0 6.279 0 14s6.279 14 14 14 14-6.279 14-14S21.721 0 14 0zm0 1.826A12.16 12.16 0 0126.174 14 12.16 12.16 0 0114 26.174 12.16 12.16 0 011.826 14 12.16 12.16 0 0114 1.826zM8.826 8.217a2.13 2.13 0 100 4.261 2.13 2.13 0 000-4.26zm10.348 0a2.13 2.13 0 100 4.261 2.13 2.13 0 000-4.26zM7.209 16.74a.88.88 0 00-.723.476.924.924 0 00.058.941c1.632 2.442 4.366 4.062 7.456 4.062 3.09 0 5.825-1.62 7.457-4.062.266-.398.15-.998-.248-1.264-.398-.267-1.008-.152-1.274.247-1.318 1.972-3.48 3.253-5.935 3.253-2.456 0-4.617-1.281-5.935-3.253-.247-.29-.562-.417-.856-.4z"/></svg><svg viewBox="0 0 21 21" id="submit" xmlns="http://www.w3.org/2000/svg"><path d="M1.973 10.012h18.985a1.024 1.024 0 00-.433-.38L1.541.856A1.129 1.129 0 00.412.953a.983.983 0 00-.341.437.905.905 0 00-.038.538l1.94 8.084zM1.974 10.988l-1.92 8.084a.921.921 0 00.218.826c.206.23.514.36.837.354.165.002.328-.035.474-.107l18.985-8.777c.18-.085.33-.218.432-.38H1.974z"/></svg></svg>